<svg width="6" height="12" viewBox="0 0 6 12" fill="none" xmlns="http://www.w3.org/2000/svg">
<path fill-rule="evenodd" clip-rule="evenodd" d="M5.71312 11.3913C5.99145 11.113 5.99145 10.6617 5.71312 10.3834L5.61613 10.2864C5.58296 10.2532 5.54733 10.224 5.50983 10.1988C5.48456 10.1613 5.45534 10.1256 5.42217 10.0924L5.2282 9.89848C5.19503 9.86531 5.1594 9.83609 5.1219 9.81082C5.09663 9.77332 5.06741 9.73769 5.03424 9.70451L4.84027 9.51055C4.8071 9.47737 4.77146 9.44815 4.73396 9.42289C4.7087 9.38539 4.67948 9.34976 4.6463 9.31658L4.45234 9.12262C4.41916 9.08944 4.38353 9.06022 4.34603 9.03496C4.32076 8.99745 4.29154 8.96182 4.25837 8.92865L4.0644 8.73468C4.03123 8.70151 3.9956 8.67229 3.9581 8.64702C3.93283 8.60952 3.90361 8.57389 3.87044 8.54072L3.67647 8.34675C3.6433 8.31358 3.60767 8.28436 3.57017 8.25909C3.5449 8.22159 3.51568 8.18596 3.48251 8.15278L3.28854 7.95882C3.25537 7.92564 3.21974 7.89642 3.18223 7.87116C3.15697 7.83366 3.12775 7.79803 3.09457 7.76485L2.90061 7.57089C2.86743 7.53771 2.8318 7.50849 2.7943 7.48323C2.76903 7.44572 2.73981 7.41009 2.70664 7.37692L2.51267 7.18295C2.4795 7.14978 2.44387 7.12056 2.40637 7.09529C2.3811 7.05779 2.35188 7.02216 2.31871 6.98899L2.12474 6.79502C2.09157 6.76185 2.05594 6.73263 2.01844 6.70736C1.99317 6.66986 1.96395 6.63423 1.93078 6.60105L1.83379 6.50407C1.81677 6.48705 1.80092 6.46955 1.78619 6.45164C1.7711 6.43329 1.75528 6.41589 1.73881 6.39945C1.72991 6.37804 1.7199 6.35687 1.70873 6.33601C1.68671 6.29484 1.66901 6.25186 1.65564 6.20767C1.64875 6.18488 1.64082 6.16268 1.63192 6.14112C1.63193 6.11774 1.6308 6.09414 1.62847 6.07038C1.6239 6.02365 1.6239 5.97654 1.62847 5.92982C1.6308 5.90606 1.63193 5.88246 1.63192 5.85907C1.64082 5.83751 1.64875 5.81532 1.65564 5.79252C1.66901 5.74834 1.68671 5.70535 1.70873 5.66419C1.7199 5.64332 1.72991 5.62215 1.73881 5.60075C1.75528 5.5843 1.7711 5.5669 1.78619 5.54856C1.80092 5.53065 1.81677 5.51315 1.83379 5.49612L1.93078 5.39914C1.96395 5.36597 1.99317 5.33034 2.01844 5.29284C2.05594 5.26757 2.09157 5.23835 2.12474 5.20518L2.31871 5.01121C2.35188 4.97804 2.3811 4.9424 2.40637 4.9049C2.44387 4.87964 2.4795 4.85042 2.51267 4.81724L2.70664 4.62328C2.73981 4.5901 2.76903 4.55447 2.7943 4.51697C2.8318 4.4917 2.86743 4.46248 2.90061 4.42931L3.09457 4.23534C3.12775 4.20217 3.15697 4.16654 3.18223 4.12904C3.21973 4.10377 3.25537 4.07455 3.28854 4.04138L3.48251 3.84741C3.51568 3.81424 3.5449 3.77861 3.57017 3.7411C3.60767 3.71584 3.6433 3.68662 3.67647 3.65345L3.87044 3.45948C3.90361 3.42631 3.93283 3.39067 3.9581 3.35317C3.9956 3.32791 4.03123 3.29869 4.0644 3.26551L4.25837 3.07155C4.29154 3.03837 4.32076 3.00274 4.34603 2.96524C4.38353 2.93997 4.41916 2.91075 4.45234 2.87758L4.6463 2.68361C4.67948 2.65044 4.7087 2.61481 4.73396 2.57731C4.77147 2.55204 4.8071 2.52282 4.84027 2.48965L5.03424 2.29568C5.06741 2.26251 5.09663 2.22688 5.1219 2.18938C5.1594 2.16411 5.19503 2.13489 5.2282 2.10172L5.42217 1.90775C5.45534 1.87458 5.48456 1.83894 5.50983 1.80144C5.54733 1.77618 5.58296 1.74696 5.61613 1.71378L5.71312 1.6168C5.99146 1.33846 5.99146 0.887188 5.71312 0.608851C5.43478 0.330513 4.98351 0.330513 4.70517 0.608851L4.60819 0.705834C4.57501 0.739007 4.54579 0.774639 4.52053 0.81214C4.48302 0.837407 4.44739 0.866626 4.41422 0.899801L4.22025 1.09377C4.18708 1.12694 4.15786 1.16257 4.13259 1.20007C4.09509 1.22534 4.05946 1.25456 4.02629 1.28773L3.83232 1.4817C3.79915 1.51487 3.76993 1.5505 3.74466 1.58801C3.70716 1.61327 3.67153 1.64249 3.63835 1.67567L3.44439 1.86963C3.41121 1.90281 3.38199 1.93844 3.35673 1.97594C3.31923 2.0012 3.2836 2.03042 3.25042 2.0636L3.05646 2.25756C3.02328 2.29074 2.99406 2.32637 2.9688 2.36387C2.93129 2.38914 2.89566 2.41836 2.86249 2.45153L2.66852 2.6455C2.63535 2.67867 2.60613 2.7143 2.58086 2.7518C2.54336 2.77707 2.50773 2.80629 2.47456 2.83946L2.28059 3.03343C2.24742 3.0666 2.2182 3.10223 2.19293 3.13974C2.15543 3.165 2.1198 3.19422 2.08662 3.2274L1.89266 3.42136C1.85948 3.45454 1.83026 3.49017 1.805 3.52767C1.7675 3.55293 1.73187 3.58215 1.69869 3.61533L1.50473 3.80929C1.47155 3.84247 1.44233 3.8781 1.41707 3.9156C1.37956 3.94087 1.34393 3.97009 1.31076 4.00326L1.11679 4.19723C1.08362 4.2304 1.0544 4.26603 1.02913 4.30353C0.991632 4.3288 0.956001 4.35802 0.922827 4.39119L0.825844 4.48818C0.77617 4.53785 0.729322 4.58952 0.685347 4.64298C0.639442 4.69878 0.603436 4.75948 0.577123 4.82294C0.528409 4.8715 0.485958 4.928 0.451827 4.9918C0.384984 5.11675 0.331455 5.24684 0.291213 5.37991C0.270314 5.44902 0.260417 5.51884 0.260514 5.58748C0.234285 5.65085 0.216833 5.71911 0.209802 5.7909C0.19618 5.93001 0.19618 6.07018 0.209803 6.2093C0.216833 6.28109 0.234285 6.34935 0.260514 6.41272C0.260418 6.48136 0.270315 6.55118 0.291214 6.62029C0.331456 6.75336 0.384984 6.88344 0.451828 7.0084C0.485959 7.0722 0.52841 7.12869 0.577124 7.17726C0.603437 7.24072 0.639442 7.30141 0.685348 7.35722C0.729323 7.41067 0.776171 7.46235 0.825845 7.51202L0.922827 7.609C0.956001 7.64218 0.991632 7.6714 1.02913 7.69666C1.0544 7.73416 1.08362 7.7698 1.11679 7.80297L1.31076 7.99694C1.34393 8.03011 1.37956 8.05933 1.41707 8.0846C1.44233 8.1221 1.47155 8.15773 1.50473 8.1909L1.69869 8.38487C1.73187 8.41804 1.7675 8.44726 1.805 8.47253C1.83026 8.51003 1.85948 8.54566 1.89266 8.57883L2.08662 8.7728C2.1198 8.80597 2.15543 8.83519 2.19293 8.86046C2.2182 8.89796 2.24742 8.93359 2.28059 8.96677L2.47456 9.16073C2.50773 9.19391 2.54336 9.22313 2.58086 9.24839C2.60613 9.2859 2.63535 9.32153 2.66852 9.3547L2.86249 9.54867C2.89566 9.58184 2.93129 9.61106 2.9688 9.63633C2.99406 9.67383 3.02328 9.70946 3.05646 9.74263L3.25042 9.9366C3.2836 9.96977 3.31923 9.99899 3.35673 10.0243C3.38199 10.0618 3.41121 10.0974 3.44439 10.1306L3.63835 10.3245C3.67153 10.3577 3.70716 10.3869 3.74466 10.4122C3.76993 10.4497 3.79915 10.4853 3.83232 10.5185L4.02629 10.7125C4.05946 10.7456 4.09509 10.7749 4.13259 10.8001C4.15786 10.8376 4.18708 10.8733 4.22025 10.9064L4.41422 11.1004C4.44739 11.1336 4.48302 11.1628 4.52053 11.1881C4.54579 11.2256 4.57501 11.2612 4.60819 11.2944L4.70517 11.3913C4.98351 11.6697 5.43478 11.6697 5.71312 11.3913Z" fill="#9CA6B4"/>
</svg>
