<svg width="6" height="10" viewBox="0 0 6 10" fill="none" xmlns="http://www.w3.org/2000/svg">
<path fill-rule="evenodd" clip-rule="evenodd" d="M0.674506 0.379126C0.435931 0.617701 0.435931 1.00451 0.674506 1.24308L0.757634 1.32621C0.786069 1.35465 0.816609 1.37969 0.848753 1.40135C0.87041 1.43349 0.895456 1.46403 0.923891 1.49247L1.09015 1.65872C1.11858 1.68716 1.14912 1.7122 1.18127 1.73386C1.20292 1.76601 1.22797 1.79655 1.2564 1.82498L1.42266 1.99124C1.4511 2.01967 1.48164 2.04472 1.51378 2.06638C1.53544 2.09852 1.56048 2.12906 1.58892 2.15749L1.75517 2.32375C1.78361 2.35219 1.81415 2.37723 1.84629 2.39889C1.86795 2.43103 1.893 2.46157 1.92143 2.49001L2.08769 2.65626C2.11612 2.6847 2.14666 2.70975 2.17881 2.7314C2.20046 2.76355 2.22551 2.79409 2.25395 2.82252L2.4202 2.98878C2.44864 3.01721 2.47918 3.04226 2.51132 3.06392C2.53298 3.09606 2.55802 3.1266 2.58646 3.15504L2.75272 3.32129C2.78115 3.34973 2.81169 3.37477 2.84383 3.39643C2.86549 3.42857 2.89054 3.45911 2.91897 3.48755L3.08523 3.65381C3.11366 3.68224 3.1442 3.70729 3.17635 3.72894C3.19801 3.76109 3.22305 3.79163 3.25149 3.82006L3.41774 3.98632C3.44618 4.01475 3.47672 4.0398 3.50886 4.06146C3.53052 4.0936 3.55556 4.12414 3.584 4.15258L3.75026 4.31883C3.77869 4.34727 3.80923 4.37231 3.84138 4.39397C3.86303 4.42611 3.88808 4.45665 3.91651 4.48509L3.99964 4.56822C4.01423 4.58281 4.02782 4.59781 4.04044 4.61316C4.05338 4.62889 4.06694 4.6438 4.08106 4.65789C4.08868 4.67624 4.09727 4.69439 4.10683 4.71227C4.12571 4.74756 4.14089 4.7844 4.15234 4.82227C4.15825 4.84181 4.16505 4.86084 4.17268 4.87931C4.17267 4.89936 4.17364 4.91959 4.17563 4.93996C4.17955 4.98 4.17955 5.02039 4.17563 5.06043C4.17364 5.0808 4.17267 5.10103 4.17268 5.12108C4.16505 5.13955 4.15825 5.15858 4.15234 5.17812C4.14089 5.21599 4.12571 5.25283 4.10683 5.28812C4.09727 5.306 4.08868 5.32415 4.08106 5.34249C4.06694 5.35659 4.05338 5.3715 4.04044 5.38723C4.02782 5.40258 4.01423 5.41758 3.99964 5.43217L3.91651 5.5153C3.88808 5.54374 3.86303 5.57428 3.84138 5.60642C3.80923 5.62808 3.77869 5.65312 3.75026 5.68156L3.584 5.84781C3.55557 5.87625 3.53052 5.90679 3.50886 5.93893C3.47672 5.96059 3.44618 5.98564 3.41774 6.01407L3.25149 6.18033C3.22305 6.20876 3.19801 6.2393 3.17635 6.27145C3.1442 6.2931 3.11366 6.31815 3.08523 6.34658L2.91897 6.51284C2.89054 6.54128 2.86549 6.57182 2.84384 6.60396C2.81169 6.62562 2.78115 6.65066 2.75272 6.6791L2.58646 6.84535C2.55802 6.87379 2.53298 6.90433 2.51132 6.93647C2.47918 6.95813 2.44864 6.98318 2.4202 7.01161L2.25395 7.17787C2.22551 7.2063 2.20047 7.23684 2.17881 7.26899C2.14666 7.29064 2.11612 7.31569 2.08769 7.34413L1.92143 7.51038C1.893 7.53882 1.86795 7.56936 1.84629 7.6015C1.81415 7.62316 1.78361 7.6482 1.75518 7.67664L1.58892 7.8429C1.56048 7.87133 1.53544 7.90187 1.51378 7.93402C1.48164 7.95567 1.4511 7.98072 1.42266 8.00915L1.2564 8.17541C1.22797 8.20384 1.20292 8.23438 1.18127 8.26653C1.14912 8.28819 1.11858 8.31323 1.09015 8.34167L0.923891 8.50792C0.895456 8.53636 0.87041 8.5669 0.848754 8.59904C0.81661 8.6207 0.786069 8.64574 0.757634 8.67418L0.674506 8.75731C0.435931 8.99588 0.435931 9.38269 0.674506 9.62126C0.913081 9.85984 1.29989 9.85984 1.53846 9.62126L1.62159 9.53814C1.65002 9.5097 1.67507 9.47916 1.69673 9.44702C1.72887 9.42536 1.75941 9.40031 1.78785 9.37188L1.9541 9.20562C1.98254 9.17719 2.00758 9.14665 2.02924 9.1145C2.06139 9.09284 2.09193 9.0678 2.12036 9.03936L2.28662 8.87311C2.31505 8.84467 2.3401 8.81413 2.36175 8.78199C2.3939 8.76033 2.42444 8.73529 2.45287 8.70685L2.61913 8.54059C2.64757 8.51216 2.67261 8.48162 2.69427 8.44948C2.72641 8.42782 2.75695 8.40277 2.78539 8.37434L2.95164 8.20808C2.98008 8.17965 3.00513 8.14911 3.02678 8.11696C3.05893 8.0953 3.08947 8.07026 3.1179 8.04182L3.28416 7.87557C3.31259 7.84713 3.33764 7.81659 3.3593 7.78445C3.39144 7.76279 3.42198 7.73775 3.45042 7.70931L3.61667 7.54305C3.64511 7.51462 3.67015 7.48408 3.69181 7.45193C3.72395 7.43028 3.75449 7.40523 3.78293 7.3768L3.94919 7.21054C3.97762 7.18211 4.00267 7.15157 4.02432 7.11942C4.05647 7.09776 4.08701 7.07272 4.11544 7.04428L4.2817 6.87803C4.31013 6.84959 4.33518 6.81905 4.35684 6.78691C4.38898 6.76525 4.41952 6.7402 4.44796 6.71177L4.61421 6.54551C4.64265 6.51708 4.66769 6.48654 4.68935 6.45439C4.72149 6.43274 4.75203 6.40769 4.78047 6.37926L4.8636 6.29613C4.90618 6.25355 4.94633 6.20926 4.98402 6.16344C5.02337 6.11561 5.05423 6.06358 5.07679 6.00919C5.11854 5.96756 5.15493 5.91914 5.18418 5.86445C5.24148 5.75735 5.28736 5.64585 5.32185 5.53179C5.33977 5.47255 5.34825 5.41271 5.34817 5.35387C5.37065 5.29955 5.38561 5.24105 5.39163 5.17951C5.40331 5.06027 5.40331 4.94012 5.39163 4.82088C5.38561 4.75934 5.37065 4.70084 5.34817 4.64652C5.34825 4.58768 5.33977 4.52784 5.32185 4.4686C5.28736 4.35454 5.24148 4.24304 5.18418 4.13594C5.15493 4.08125 5.11854 4.03283 5.07679 3.9912C5.05423 3.93681 5.02337 3.88478 4.98402 3.83695C4.94633 3.79113 4.90617 3.74684 4.8636 3.70426L4.78047 3.62113C4.75203 3.5927 4.72149 3.56765 4.68935 3.546C4.66769 3.51385 4.64265 3.48331 4.61421 3.45488L4.44796 3.28862C4.41952 3.26019 4.38898 3.23514 4.35684 3.21348C4.33518 3.18134 4.31013 3.1508 4.2817 3.12236L4.11544 2.95611C4.08701 2.92767 4.05647 2.90263 4.02432 2.88097C4.00267 2.84882 3.97762 2.81828 3.94918 2.78985L3.78293 2.62359C3.75449 2.59516 3.72395 2.57011 3.69181 2.54846C3.67015 2.51631 3.64511 2.48577 3.61667 2.45734L3.45041 2.29108C3.42198 2.26264 3.39144 2.2376 3.35929 2.21594C3.33764 2.1838 3.31259 2.15326 3.28416 2.12482L3.1179 1.95857C3.08947 1.93013 3.05893 1.90508 3.02678 1.88343C3.00512 1.85128 2.98008 1.82074 2.95164 1.79231L2.78539 1.62605C2.75695 1.59762 2.72641 1.57257 2.69427 1.55091C2.67261 1.51877 2.64757 1.48823 2.61913 1.4598L2.45287 1.29354C2.42444 1.2651 2.3939 1.24006 2.36175 1.2184C2.3401 1.18626 2.31505 1.15572 2.28662 1.12728L2.12036 0.961025C2.09193 0.93259 2.06139 0.907545 2.02924 0.885888C2.00758 0.853744 1.98254 0.823203 1.9541 0.794768L1.78785 0.628512C1.75941 0.600077 1.72887 0.575031 1.69673 0.553374C1.67507 0.52123 1.65002 0.49069 1.62159 0.462255L1.53846 0.379126C1.29989 0.140552 0.913081 0.140552 0.674506 0.379126Z" fill="#9CA6B4"/>
</svg>
