<svg width="14" height="14" viewBox="0 0 14 14" fill="none" xmlns="http://www.w3.org/2000/svg">
<path d="M2.3335 7.19702C2.3335 6.28243 3.01935 5.51323 3.92795 5.40879L6.79462 5.07929C6.9312 5.06359 7.06913 5.06359 7.20571 5.07929L10.0724 5.40879C10.981 5.51323 11.6668 6.28243 11.6668 7.19702V10.5126C11.6668 11.3888 11.036 12.1376 10.1727 12.2865L7.30599 12.7807C7.1036 12.8156 6.89672 12.8156 6.69433 12.7807L3.82766 12.2865C2.96429 12.1376 2.3335 11.3888 2.3335 10.5126V7.19702Z" stroke="white"/>
<circle cx="7.0002" cy="8.29634" r="0.648149" fill="white" stroke="white"/>
<path d="M4.66699 5.25008V2.96675C4.66699 1.97263 5.47288 1.16675 6.46699 1.16675H7.53366C8.52777 1.16675 9.33366 1.97264 9.33366 2.96675V5.25008" stroke="white" stroke-linecap="round"/>
<path d="M7 8.94458V10.2409" stroke="white" stroke-linecap="round"/>
</svg>
