<svg width="14" height="14" viewBox="0 0 14 14" fill="none" xmlns="http://www.w3.org/2000/svg">
<g clip-path="url(#clip0_456_3866)">
<path d="M8.03614 2.01196H12.0602C12.4306 2.01196 12.7309 2.31224 12.7309 2.68264V3.7462C12.7309 3.92408 12.6603 4.09467 12.5345 4.22045L11.3895 5.36537M4.34739 2.01196H2.67068C2.30027 2.01196 2 2.31224 2 2.68264V3.7462C2 3.92408 2.07066 4.09467 2.19644 4.22045L5.82765 7.85166C5.95343 7.97744 6.02409 8.14803 6.02409 8.32591V12.3284C6.02409 12.8269 6.54877 13.1512 6.99471 12.9282L8.33608 12.2576C8.56329 12.144 8.70682 11.9117 8.70682 11.6577V8.32591C8.70682 8.14803 8.77748 7.97744 8.90326 7.85166L9.71284 7.04208" stroke="#102B51" stroke-linecap="round" stroke-linejoin="round"/>
<path d="M2.67065 0L12.0602 9.38955" stroke="#102B51" stroke-linecap="round" stroke-linejoin="round"/>
</g>
<defs>
<clipPath id="clip0_456_3866">
<rect width="14" height="14" fill="white"/>
</clipPath>
</defs>
</svg>
