<svg width="18" height="18" viewBox="0 0 18 18" fill="none" xmlns="http://www.w3.org/2000/svg">
<path d="M15.9375 3.01176H12V2.82417C12 2.10045 11.4112 1.51172 10.6875 1.51172H7.3125C6.58878 1.51172 6.00005 2.10045 6.00005 2.82417V3.01176H2.06255C0.924774 3.01176 0 3.9364 0 5.07417V14.4492C0 15.587 0.924774 16.5118 2.06255 16.5118H15.9375C17.0752 16.5118 18 15.587 18 14.4492V5.07417C18 3.9364 17.0752 3.01176 15.9375 3.01176ZM10.5007 4.51167H7.49995V3.01176H10.5L10.5007 4.51167ZM5.625 6.76167C6.65854 6.76167 7.49995 7.60323 7.49995 8.63676C7.49995 9.67017 6.65854 10.5117 5.625 10.5117C4.59146 10.5117 3.75005 9.67017 3.75005 8.63676C3.75005 7.60323 4.59146 6.76167 5.625 6.76167ZM9 13.6993C9 14.0098 8.748 14.2618 8.4375 14.2618H2.8125C2.502 14.2618 2.25 14.0098 2.25 13.6993V13.3242C2.25 12.1864 3.17477 11.2617 4.31255 11.2617H6.93745C8.07523 11.2617 9 12.1864 9 13.3242V13.6993ZM15.1875 14.2618H11.0625C10.752 14.2618 10.5 14.0098 10.5 13.6993C10.5 13.3888 10.752 13.1368 11.0625 13.1368H15.1875C15.498 13.1368 15.75 13.3888 15.75 13.6993C15.75 14.0098 15.498 14.2618 15.1875 14.2618ZM15.1875 11.2617H11.0625C10.752 11.2617 10.5 11.0097 10.5 10.6992C10.5 10.3887 10.752 10.1367 11.0625 10.1367H15.1875C15.498 10.1367 15.75 10.3887 15.75 10.6992C15.75 11.0097 15.498 11.2617 15.1875 11.2617ZM15.1875 8.26172H11.0625C10.752 8.26172 10.5 8.00972 10.5 7.69922C10.5 7.38872 10.752 7.13672 11.0625 7.13672H15.1875C15.498 7.13672 15.75 7.38872 15.75 7.69922C15.75 8.00972 15.498 8.26172 15.1875 8.26172Z" fill="#9CA6B4"/>
</svg>
