<svg width="14" height="14" viewBox="0 0 14 14" fill="none" xmlns="http://www.w3.org/2000/svg">
<path d="M1 2.16667C1 1.52233 1.52233 1 2.16667 1H4.5C5.14433 1 5.66667 1.52233 5.66667 2.16667V4.5C5.66667 5.14433 5.14433 5.66667 4.5 5.66667H2.16667C1.52233 5.66667 1 5.14433 1 4.5V2.16667Z" stroke="white"/>
<path d="M12.6667 3.33333C12.6667 4.622 11.622 5.66667 10.3333 5.66667C9.04467 5.66667 8 4.622 8 3.33333C8 2.04467 9.04467 1 10.3333 1C11.622 1 12.6667 2.04467 12.6667 3.33333Z" stroke="white"/>
<path d="M5.66667 10.3333C5.66667 11.622 4.622 12.6667 3.33333 12.6667C2.04467 12.6667 1 11.622 1 10.3333C1 9.04467 2.04467 8 3.33333 8C4.622 8 5.66667 9.04467 5.66667 10.3333Z" stroke="white"/>
<path d="M8 9.16667C8 8.52234 8.52234 8 9.16667 8H11.5C12.1443 8 12.6667 8.52234 12.6667 9.16667V11.5C12.6667 12.1443 12.1443 12.6667 11.5 12.6667H9.16667C8.52234 12.6667 8 12.1443 8 11.5V9.16667Z" stroke="white"/>
</svg>
