<svg width="14" height="12" viewBox="0 0 14 12" fill="none" xmlns="http://www.w3.org/2000/svg">
<path d="M12.2604 7.65412L12.0968 8.1266L12.0968 8.1266L12.2604 7.65412ZM12.2604 4.34588L12.424 4.81837L12.424 4.81837L12.2604 4.34588ZM1.73928 7.65412L1.90286 8.1266L1.90286 8.1266L1.73928 7.65412ZM1.73928 4.34588L1.57569 4.81837L1.57569 4.81837L1.73928 4.34588ZM9.10339 4.60355C9.29865 4.40829 9.29865 4.09171 9.10339 3.89645C8.90813 3.70118 8.59155 3.70118 8.39628 3.89645L9.10339 4.60355ZM4.89628 7.39645C4.70102 7.59171 4.70102 7.90829 4.89628 8.10355C5.09155 8.29882 5.40813 8.29882 5.60339 8.10355L4.89628 7.39645ZM3.49984 10.75C2.48732 10.75 1.6665 9.92919 1.6665 8.91667H0.666504C0.666504 10.4815 1.93503 11.75 3.49984 11.75V10.75ZM12.3332 8.91667C12.3332 9.92919 11.5124 10.75 10.4998 10.75V11.75C12.0646 11.75 13.3332 10.4815 13.3332 8.91667H12.3332ZM10.4998 1.25C11.5124 1.25 12.3332 2.07081 12.3332 3.08333H13.3332C13.3332 1.51853 12.0646 0.25 10.4998 0.25V1.25ZM3.49984 0.25C1.93503 0.25 0.666504 1.51853 0.666504 3.08333H1.6665C1.6665 2.07081 2.48732 1.25 3.49984 1.25V0.25ZM12.424 7.18163C11.9339 7.01196 11.5832 6.54629 11.5832 6H10.5832C10.5832 6.98551 11.2165 7.82181 12.0968 8.1266L12.424 7.18163ZM11.5832 6C11.5832 5.45371 11.9339 4.98804 12.424 4.81837L12.0968 3.8734C11.2165 4.17819 10.5832 5.01449 10.5832 6H11.5832ZM2.4165 6C2.4165 6.54629 2.06576 7.01196 1.57569 7.18163L1.90286 8.1266C2.7832 7.82181 3.4165 6.98551 3.4165 6H2.4165ZM1.57569 4.81837C2.06576 4.98804 2.4165 5.4537 2.4165 6H3.4165C3.4165 5.01449 2.7832 4.17819 1.90286 3.8734L1.57569 4.81837ZM13.3332 3.66667V3.08333H12.3332V3.66667H13.3332ZM12.3332 8.33333V8.91667H13.3332V8.33333H12.3332ZM0.666504 8.33333V8.91667H1.6665V8.33333H0.666504ZM1.6665 3.66667V3.08333H0.666504V3.66667H1.6665ZM10.4998 10.75H3.49984V11.75H10.4998V10.75ZM10.4998 0.25H3.49984V1.25H10.4998V0.25ZM1.57569 7.18163C1.16673 7.32322 0.666504 7.71105 0.666504 8.33333H1.6665C1.6665 8.3191 1.67079 8.29073 1.70971 8.24765C1.75128 8.20165 1.81959 8.15543 1.90286 8.1266L1.57569 7.18163ZM12.424 4.81837C12.8329 4.67678 13.3332 4.28895 13.3332 3.66667H12.3332C12.3332 3.6809 12.3289 3.70927 12.29 3.75235C12.2484 3.79835 12.1801 3.84457 12.0968 3.8734L12.424 4.81837ZM1.90286 3.8734C1.81959 3.84457 1.75128 3.79835 1.70971 3.75235C1.67079 3.70927 1.6665 3.6809 1.6665 3.66667H0.666504C0.666504 4.28895 1.16673 4.67678 1.57569 4.81837L1.90286 3.8734ZM12.0968 8.1266C12.1801 8.15543 12.2484 8.20165 12.29 8.24765C12.3289 8.29073 12.3332 8.3191 12.3332 8.33333H13.3332C13.3332 7.71105 12.8329 7.32322 12.424 7.18163L12.0968 8.1266ZM5.33317 4.25C5.33317 4.29602 5.29586 4.33333 5.24984 4.33333V5.33333C5.84815 5.33333 6.33317 4.84831 6.33317 4.25H5.33317ZM5.24984 4.33333C5.20381 4.33333 5.1665 4.29602 5.1665 4.25H4.1665C4.1665 4.84831 4.65153 5.33333 5.24984 5.33333V4.33333ZM5.1665 4.25C5.1665 4.20398 5.20381 4.16667 5.24984 4.16667V3.16667C4.65153 3.16667 4.1665 3.65169 4.1665 4.25H5.1665ZM5.24984 4.16667C5.29586 4.16667 5.33317 4.20398 5.33317 4.25H6.33317C6.33317 3.65169 5.84815 3.16667 5.24984 3.16667V4.16667ZM8.83317 7.75C8.83317 7.79602 8.79586 7.83333 8.74984 7.83333V8.83333C9.34815 8.83333 9.83317 8.34831 9.83317 7.75H8.83317ZM8.74984 7.83333C8.70381 7.83333 8.6665 7.79602 8.6665 7.75H7.6665C7.6665 8.34831 8.15153 8.83333 8.74984 8.83333V7.83333ZM8.6665 7.75C8.6665 7.70398 8.70381 7.66667 8.74984 7.66667V6.66667C8.15153 6.66667 7.6665 7.15169 7.6665 7.75H8.6665ZM8.74984 7.66667C8.79586 7.66667 8.83317 7.70398 8.83317 7.75H9.83317C9.83317 7.15169 9.34815 6.66667 8.74984 6.66667V7.66667ZM8.39628 3.89645L4.89628 7.39645L5.60339 8.10355L9.10339 4.60355L8.39628 3.89645Z" fill="white"/>
</svg>
