<svg width="14" height="14" viewBox="0 0 14 14" fill="none" xmlns="http://www.w3.org/2000/svg">
<path d="M10.3333 1.16675V3.50008M10.3333 3.50008V5.83342M10.3333 3.50008H8M10.3333 3.50008H12.6667M2.16667 5.83342H4.5C5.14433 5.83342 5.66667 5.31108 5.66667 4.66675V2.33341C5.66667 1.68908 5.14433 1.16675 4.5 1.16675H2.16667C1.52233 1.16675 1 1.68908 1 2.33341V4.66675C1 5.31108 1.52233 5.83342 2.16667 5.83342ZM5.66667 10.5001C5.66667 11.7887 4.622 12.8334 3.33333 12.8334C2.04467 12.8334 1 11.7887 1 10.5001C1 9.21142 2.04467 8.16675 3.33333 8.16675C4.622 8.16675 5.66667 9.21142 5.66667 10.5001ZM9.16667 12.8334H11.5C12.1443 12.8334 12.6667 12.3111 12.6667 11.6667V9.33342C12.6667 8.68908 12.1443 8.16675 11.5 8.16675H9.16667C8.52234 8.16675 8 8.68908 8 9.33342V11.6667C8 12.3111 8.52234 12.8334 9.16667 12.8334Z" stroke="white" stroke-linecap="round"/>
</svg>
