<svg width="147" height="40" viewBox="0 0 147 40" fill="none" xmlns="http://www.w3.org/2000/svg">
<path d="M31.3713 9.78345L30.7544 12.9218H26.8026L24.635 23.6911H21.1943L23.3594 12.9218H19.3904L20.0269 9.78345H31.3713Z" fill="white"/>
<path d="M39.077 13.6172L37.7646 16.736C37.3573 16.565 36.9209 16.474 36.4792 16.4681C35.0047 16.4681 34.0216 17.5617 33.6161 19.5671L32.783 23.7009H29.5242L31.5714 13.4477H34.5205L34.2428 14.9566C35.157 13.8065 36.1696 13.3076 37.4623 13.3076C38.0158 13.3021 38.5648 13.4074 39.077 13.6172Z" fill="white"/>
<path d="M47.8011 13.4382H51.06L49.0152 23.6914H46.0538L46.2725 22.3594C45.2378 23.3425 44.0877 23.8487 42.8146 23.8487C40.4897 23.8487 39.1995 22.1603 39.6959 19.7371L40.9468 13.4382H44.2376L43.1267 18.9605C42.8466 20.3319 43.2447 20.9881 44.3384 20.9881C45.5672 20.9881 46.4642 20.1746 46.7419 18.7762L47.8011 13.4382Z" fill="white"/>
<path d="M52.4899 18.3655C53.1068 15.2665 55.53 13.1799 58.6094 13.1799C60.3985 13.1799 61.9075 13.8754 62.7013 15.0084L60.6566 16.9598C60.3966 16.6494 60.0712 16.4003 59.7037 16.2304C59.3362 16.0604 58.9356 15.9738 58.5308 15.9767C57.1004 15.9767 55.9281 17.0482 55.6086 18.599C55.2891 20.1498 56.0338 21.1672 57.5084 21.1672C58.5314 21.1419 59.5031 20.7135 60.2118 19.9753L61.6618 22.0421C61.0544 22.6559 60.3297 23.141 59.5308 23.4687C58.732 23.7963 57.8753 23.9598 57.0119 23.9492C53.6425 23.9492 51.8337 21.6292 52.4899 18.3655Z" fill="white"/>
<path d="M75.45 13.4381L71.2254 18.5843L73.57 23.6913H70.0433L68.3229 19.7763H67.3399L66.6026 23.6913H63.3389L66.288 8.9873H69.5468L67.9371 17.0532H68.7334L71.5744 13.4381H75.45Z" fill="white"/>
<path d="M89.8605 9.78345H92.9596L90.18 23.6911H86.7541L88.4032 15.3647L84.5177 19.6164H82.9866L80.7747 15.1927L79.0667 23.6961H75.626L78.4178 9.78345H81.2785L84.3383 15.6621L89.8605 9.78345Z" fill="white"/>
<path d="M93.8157 18.3655C94.4522 15.2468 97.0106 13.1799 100.272 13.1799C103.73 13.1799 105.637 15.4655 104.961 18.7833C104.344 21.8824 101.766 23.9443 98.5048 23.9443C95.0469 23.9492 93.1448 21.6637 93.8157 18.3655ZM101.842 18.5253C102.14 16.9942 101.366 15.962 99.9548 15.962C98.4802 15.962 97.2514 17.0532 96.9541 18.6039C96.6567 20.1547 97.4112 21.1672 98.8415 21.1672C100.311 21.1672 101.545 20.0932 101.842 18.5253Z" fill="white"/>
<path d="M111.517 16.0011L110.802 19.6163C110.603 20.5502 110.881 20.9483 111.716 20.9483C112.158 20.9421 112.594 20.8589 113.007 20.7025L113.166 23.3838C112.372 23.7091 111.521 23.8761 110.662 23.8753C108.079 23.8753 106.946 22.4843 107.484 19.8424L108.259 16.0085H106.661L107.177 13.4452H108.807L109.365 10.9875H112.51L112.019 13.4452H114.476L113.96 16.0011H111.517Z" fill="white"/>
<path d="M115.292 18.3655C115.926 15.2468 118.487 13.1799 121.748 13.1799C125.206 13.1799 127.113 15.4655 126.438 18.7833C125.821 21.8824 123.243 23.9443 119.981 23.9443C116.524 23.9492 114.616 21.6637 115.292 18.3655ZM123.319 18.5253C123.616 16.9942 122.842 15.962 121.431 15.962C119.957 15.962 118.728 17.0532 118.431 18.6039C118.133 20.1547 118.888 21.1672 120.318 21.1672C121.788 21.1672 123.019 20.0932 123.319 18.5253Z" fill="white"/>
<path d="M137.465 13.6173L136.152 16.736C135.744 16.5644 135.305 16.4735 134.862 16.4681C133.387 16.4681 132.404 17.5618 131.999 19.5672L131.166 23.7009H127.907L129.954 13.4477H132.903L132.626 14.9567C133.54 13.8065 134.552 13.3076 135.845 13.3076C136.4 13.3015 136.951 13.4068 137.465 13.6173Z" fill="white"/>
<path d="M136.708 22.5387L138.24 20.3269C139.143 20.9916 140.237 21.3476 141.358 21.3419C142.233 21.3419 142.73 21.0961 142.808 20.666C142.887 20.2359 142.55 19.9509 141.358 19.683C139.014 19.1276 138.06 17.9626 138.409 16.2079C138.788 14.3204 140.375 13.2587 142.762 13.2587C144.249 13.2477 145.704 13.6845 146.94 14.5121L145.431 16.5962C144.604 16.0503 143.639 15.7503 142.649 15.7311C141.874 15.7311 141.476 15.9302 141.398 16.3259C141.319 16.8174 141.643 17.0632 142.848 17.3802C145.232 17.9749 146.224 19.1276 145.868 20.8553C145.49 22.8042 143.723 23.8953 141.12 23.8953C139.543 23.9201 137.999 23.4452 136.708 22.5387Z" fill="white"/>
<path d="M35.2823 27.0803L35.1693 26.9328C35.1029 26.8466 35.0177 26.7768 34.9201 26.7288C34.8225 26.6808 34.7152 26.6558 34.6065 26.6558C34.4977 26.6558 34.3904 26.6808 34.2928 26.7288C34.1953 26.7768 34.11 26.8466 34.0437 26.9328C33.9945 26.9942 33.9454 27.0581 33.8938 27.1196C32.543 28.7918 30.5921 29.8696 28.4575 30.1228C27.4858 30.2212 26.5075 30.2384 25.5329 30.1744C25.0522 30.1515 24.5753 30.0781 24.1099 29.9557C23.8701 29.9105 23.6336 29.8489 23.4022 29.7714C22.214 29.4239 21.072 28.9345 20.0008 28.314C17.8642 27.1214 16.0073 25.4858 14.5547 23.5167C12.7803 21.2016 11.5933 18.6187 11.2074 15.7309C10.9873 14.2459 11.0549 12.7324 11.4065 11.2728C11.9177 9.2379 12.9327 7.53477 14.6014 6.2568C16.0203 5.19297 17.7256 4.57915 19.497 4.49469C20.147 4.45082 20.7994 4.45739 21.4483 4.51435C21.5334 4.52155 21.619 4.50722 21.6971 4.47266C21.7752 4.43811 21.8433 4.38444 21.8952 4.31662C21.9472 4.2488 21.9811 4.169 21.9941 4.08459C22.0071 4.00017 21.9985 3.91385 21.9694 3.83359C21.758 3.34206 21.5884 2.83579 21.4164 2.32952C21.205 1.70774 20.9691 1.10071 20.2564 0.901638C19.8288 0.766469 19.3741 0.690283 18.9244 0.594435C18.0494 0.407656 17.1696 0.24791 16.2972 0.0291813C16.1756 -0.00372109 16.0481 -0.00887506 15.9243 0.0141005C15.8005 0.037076 15.6833 0.0875935 15.5817 0.161918C15.48 0.236243 15.3963 0.332474 15.3368 0.443497C15.2773 0.55452 15.2435 0.677496 15.2379 0.803333C15.1961 1.37842 15.1544 1.95596 15.0856 2.52367C15.066 2.58267 15.0323 2.63596 14.9873 2.67882C14.9423 2.72169 14.8874 2.75281 14.8275 2.76943C13.8838 2.95457 12.9384 3.12661 11.9914 3.28553C11.7456 3.32731 11.3967 3.43053 11.2148 3.31748C10.5733 2.90952 9.98598 2.41308 9.37157 1.96087C8.97098 1.66596 8.60971 1.2752 8.04937 1.30469C7.85419 1.29759 7.65955 1.32933 7.47674 1.39808C7.30717 1.48655 6.58954 2.06901 6.42488 2.18206C5.54996 2.79155 5.27717 3.01765 4.39734 3.61731C4.29411 3.68517 4.2057 3.77323 4.13745 3.8762C4.06921 3.97917 4.02254 4.0949 4.00026 4.2164C3.97798 4.33791 3.98055 4.46267 4.00783 4.58315C4.0351 4.70363 4.08651 4.81734 4.15895 4.9174C4.74878 5.72841 5.34598 6.53452 5.92844 7.35045C5.9564 7.39603 5.9736 7.4474 5.97871 7.50064C5.98382 7.55387 5.97671 7.60758 5.95793 7.65765C5.27498 8.71066 4.74848 9.85721 4.39488 11.0615C4.37447 11.1185 4.33816 11.1684 4.29026 11.2054C4.24235 11.2425 4.18484 11.265 4.12454 11.2704C3.14149 11.3048 2.13878 11.322 1.14836 11.3392C0.998424 11.3284 0.847901 11.3493 0.70657 11.4005C0.565238 11.4517 0.43626 11.532 0.328017 11.6363C0.219773 11.7406 0.134686 11.8666 0.0782852 12.0059C0.0218842 12.1452 -0.00456892 12.2949 0.000644752 12.4451C0.000644752 14.1212 0.000644752 15.7973 0.000644752 17.4734C0.00414784 17.79 0.112391 18.0964 0.308467 18.345C0.504544 18.5935 0.777413 18.7701 1.08446 18.8472C1.69149 19.0266 2.31327 19.1913 2.91293 19.3633C3.31352 19.4764 3.72149 19.5747 4.11471 19.7098C4.31623 19.7811 4.60623 19.8794 4.66768 20.0318C5.20397 21.6763 5.91069 23.2602 6.77632 24.7578C6.8001 24.8209 6.80957 24.8884 6.80405 24.9556C6.79852 25.0227 6.77814 25.0878 6.74437 25.1461C6.16437 26.0456 5.57454 26.9385 4.97488 27.8249C4.81849 28.0266 4.72879 28.272 4.71822 28.527C4.70765 28.782 4.77674 29.0339 4.9159 29.2479C5.31394 29.7898 5.7553 30.2986 6.23564 30.7692C7.31208 31.9316 8.40081 33.0818 9.48216 34.2418C10.0745 34.8783 10.7626 34.9791 11.3819 34.4875C12.1954 33.8584 12.9941 33.2145 13.815 32.6001C13.8862 32.5512 13.9689 32.5214 14.0549 32.5137C14.141 32.5059 14.2276 32.5205 14.3065 32.5559C15.5353 33.1629 16.7641 33.7355 17.9929 34.372L18.5287 34.635C18.7474 34.7407 19.0866 34.8267 19.1406 34.9987C19.5363 36.2595 19.8779 37.5375 20.222 38.8105C20.315 39.1514 20.5174 39.4524 20.7979 39.6673C21.0785 39.8821 21.4218 39.999 21.7752 40C22.5813 40 23.3874 40 24.1935 40C24.9996 40 25.8377 40 26.6511 40C27.3417 40 27.7497 39.5871 27.7423 38.9014C27.7276 37.7095 27.6932 36.5175 27.6956 35.3256C27.6994 35.2444 27.727 35.166 27.7751 35.1004C27.8232 35.0349 27.8896 34.9849 27.966 34.957C29.1273 34.5699 30.2143 33.9882 31.1805 33.2366C31.2117 33.2051 31.249 33.1803 31.2901 33.1639C31.3313 33.1474 31.3754 33.1396 31.4197 33.141C31.464 33.1424 31.5075 33.1529 31.5476 33.1719C31.5876 33.1909 31.6233 33.2179 31.6524 33.2514C32.5126 33.9067 33.3785 34.5621 34.2501 35.2175C34.7687 35.6058 35.2332 35.5075 35.5551 34.9398C36.2064 33.8068 36.8429 32.6615 37.4917 31.5261C37.9267 30.7667 37.4008 30.1941 36.7913 29.3511L35.2823 27.0803Z" fill="url(#paint0_linear_456_12590)"/>
<g opacity="0.6">
<path d="M62.2525 36.4658L63.5698 30.2652H60.0333L58.716 36.4658H57.5093L59.0748 29.1052H65.0149L63.4494 36.4781L62.2525 36.4658Z" fill="white"/>
<path d="M69.0007 31.1795C69.2959 31.1678 69.5899 31.2226 69.8609 31.34C70.1319 31.4575 70.373 31.6345 70.5662 31.8579C70.9602 32.3126 71.1705 32.898 71.1561 33.4995C71.169 33.904 71.1009 34.307 70.9557 34.6848C70.8105 35.0626 70.5912 35.4074 70.3106 35.6991C70.0357 35.9846 69.7042 36.2095 69.3372 36.3593C68.9703 36.5092 68.5761 36.5806 68.1799 36.5691C67.8624 36.5734 67.5477 36.508 67.2583 36.3774C67.0216 36.2776 66.8094 36.1275 66.6365 35.9375L66.1106 38.4762H64.9702L66.4939 31.2828H67.6343L67.5409 31.7079C67.7148 31.5398 67.9238 31.4122 68.1528 31.3344C68.4235 31.2309 68.711 31.1784 69.0007 31.1795ZM68.6788 32.197C68.3987 32.1965 68.1233 32.2694 67.8801 32.4084C67.6414 32.5429 67.433 32.7253 67.2681 32.9441L66.865 34.9004C66.9879 35.0976 67.1632 35.2568 67.3713 35.36C67.6084 35.4842 67.8729 35.5467 68.1406 35.5418C68.387 35.5462 68.6315 35.4975 68.8575 35.3992C69.0835 35.3008 69.2857 35.155 69.4505 34.9717C69.8004 34.6076 69.9921 34.1199 69.9838 33.6151C70.0003 33.2421 69.8747 32.8767 69.6323 32.5927C69.5116 32.4615 69.3638 32.3582 69.1991 32.2898C69.0345 32.2215 68.8569 32.1898 68.6788 32.197Z" fill="white"/>
<path d="M74.712 36.579C74.37 36.5976 74.0281 36.5412 73.7102 36.4139C73.3922 36.2865 73.1059 36.0913 72.8713 35.8418C72.4332 35.359 72.1974 34.7264 72.2126 34.0747C72.2027 33.6933 72.2692 33.3138 72.408 32.9584C72.5469 32.6031 72.7553 32.2791 73.0212 32.0054C73.2966 31.7271 73.627 31.5092 73.9914 31.3658C74.3557 31.2223 74.746 31.1564 75.1372 31.1723C75.4788 31.1541 75.8203 31.2106 76.1378 31.338C76.4553 31.4653 76.7412 31.6604 76.9755 31.9096C77.4137 32.3902 77.6496 33.0214 77.6342 33.6717C77.6441 34.0534 77.5782 34.4333 77.4403 34.7894C77.3023 35.1454 77.0951 35.4706 76.8305 35.7459C76.5554 36.0253 76.2246 36.2438 75.8597 36.3873C75.4948 36.5308 75.1038 36.5962 74.712 36.579ZM74.8054 35.5124C75.0296 35.5173 75.2522 35.4744 75.4585 35.3867C75.6649 35.299 75.8502 35.1684 76.0023 35.0037C76.1624 34.8392 76.2883 34.6446 76.3727 34.4312C76.457 34.2177 76.4982 33.9896 76.4938 33.7602C76.5155 33.3525 76.376 32.9526 76.1055 32.6468C75.9689 32.5083 75.8046 32.4002 75.6234 32.3295C75.4421 32.2587 75.248 32.227 75.0537 32.2364C74.8302 32.2312 74.6082 32.2739 74.4026 32.3617C74.197 32.4494 74.0125 32.5802 73.8617 32.7452C73.7044 32.9109 73.5812 33.106 73.4994 33.3194C73.4176 33.5328 73.3787 33.7603 73.3849 33.9887C73.3725 34.1915 73.4004 34.3948 73.467 34.5867C73.5337 34.7787 73.6378 34.9555 73.7732 35.1069C73.9077 35.2424 74.069 35.3484 74.2467 35.4183C74.4244 35.4881 74.6147 35.5201 74.8054 35.5124Z" fill="white"/>
<path d="M81.2523 36.5792C80.9066 36.5985 80.5608 36.5426 80.2387 36.4153C79.9167 36.288 79.6261 36.0924 79.387 35.8419C78.9465 35.3603 78.7088 34.7274 78.7234 34.0749C78.7145 33.6932 78.7818 33.3135 78.9215 32.9582C79.0612 32.6028 79.2704 32.279 79.5369 32.0055C79.8102 31.7249 80.1392 31.5046 80.5028 31.359C80.8665 31.2134 81.2566 31.1456 81.648 31.1601C82.1718 31.1452 82.6872 31.2938 83.1226 31.5853C83.5225 31.8539 83.8264 32.243 83.9901 32.6961L82.9629 33.1877C82.8757 32.9028 82.6947 32.6559 82.4492 32.4872C82.1901 32.3166 81.8844 32.2307 81.5743 32.2415C81.3493 32.2355 81.1256 32.2778 80.9182 32.3655C80.7109 32.4533 80.5249 32.5845 80.3725 32.7502C80.2148 32.9158 80.0914 33.1109 80.0091 33.3243C79.9269 33.5377 79.8875 33.7652 79.8933 33.9938C79.8813 34.1967 79.9097 34.4001 79.9767 34.592C80.0438 34.7839 80.1483 34.9607 80.284 35.112C80.4195 35.249 80.5823 35.3559 80.7618 35.4258C80.9414 35.4956 81.1336 35.5269 81.3261 35.5175C81.6292 35.5302 81.9293 35.4533 82.1889 35.2963C82.4486 35.1394 82.6562 34.9095 82.7859 34.6352L83.7395 35.257C83.1955 36.1384 82.3665 36.5792 81.2523 36.5792Z" fill="white"/>
<path d="M85.5422 36.4662L86.4245 32.2882H84.8787L85.0974 31.2732H89.4204L89.2016 32.2882H87.5648L86.6826 36.4662H85.5422Z" fill="white"/>
<path d="M92.1283 36.579C91.7863 36.5976 91.4444 36.5412 91.1264 36.4139C90.8085 36.2865 90.5222 36.0913 90.2875 35.8418C89.8506 35.3584 89.6149 34.7262 89.6289 34.0747C89.619 33.6933 89.6854 33.3138 89.8243 32.9584C89.9631 32.6031 90.1716 32.2791 90.4375 32.0054C90.713 31.7273 91.0435 31.5096 91.4078 31.3662C91.7721 31.2228 92.1623 31.1567 92.5535 31.1723C92.8951 31.1541 93.2365 31.2106 93.554 31.338C93.8715 31.4653 94.1574 31.6604 94.3918 31.9096C94.83 32.3902 95.0659 33.0214 95.0504 33.6717C95.0603 34.0532 94.9946 34.4329 94.8571 34.7889C94.7196 35.1448 94.513 35.4701 94.2492 35.7459C93.9736 36.0254 93.6424 36.2439 93.2771 36.3874C92.9118 36.5309 92.5204 36.5962 92.1283 36.579ZM92.2217 35.5124C92.4458 35.5173 92.6684 35.4744 92.8748 35.3867C93.0811 35.299 93.2665 35.1684 93.4185 35.0037C93.5787 34.8392 93.7046 34.6446 93.7889 34.4312C93.8733 34.2177 93.9145 33.9896 93.9101 33.7602C93.9317 33.3525 93.7923 32.9526 93.5218 32.6468C93.3852 32.5082 93.221 32.4 93.0397 32.3292C92.8584 32.2585 92.6643 32.2269 92.4699 32.2364C92.2464 32.2312 92.0244 32.2739 91.8188 32.3617C91.6132 32.4494 91.4288 32.5802 91.278 32.7452C91.1206 32.9109 90.9975 33.106 90.9157 33.3194C90.8339 33.5328 90.795 33.7603 90.8012 33.9887C90.7774 34.3982 90.9171 34.8003 91.1895 35.1069C91.324 35.2424 91.4852 35.3484 91.6629 35.4183C91.8406 35.4881 92.0309 35.5201 92.2217 35.5124Z" fill="white"/>
<path d="M99.6627 36.4661H98.6477L99.7463 31.283H100.887L100.171 34.6106L103.519 31.283H104.536L103.438 36.4661H102.307L103.012 33.1286L99.6627 36.4661Z" fill="white"/>
<path d="M113.789 31.283L109.965 37.056C109.696 37.5006 109.35 37.8941 108.943 38.2184C108.605 38.4352 108.209 38.5432 107.808 38.5281C107.57 38.5285 107.334 38.4971 107.105 38.4347L107.35 37.4517C107.5 37.4836 107.652 37.5008 107.805 37.5033C108.004 37.5063 108.198 37.4461 108.361 37.3312C108.566 37.1688 108.74 36.9707 108.874 36.7463L109.277 36.1245L108.105 31.2732H109.267L110.103 34.8687L112.477 31.283H113.789Z" fill="white"/>
<path d="M113.323 35.4486H113.449C113.571 35.4474 113.691 35.4168 113.8 35.3595C113.908 35.3022 114.001 35.2199 114.07 35.1193C114.297 34.756 114.446 34.3491 114.505 33.9249L115.076 31.283H119.347L118.457 35.4486H119.266L118.774 37.7613H117.727L118.008 36.4661H114.154L113.874 37.7613H112.837L113.323 35.4486ZM116 32.298L115.626 34.0404C115.474 34.7384 115.29 35.2078 115.076 35.4486H117.327L117.988 32.298H116Z" fill="white"/>
<path d="M122.975 36.5791C122.633 36.5976 122.292 36.5412 121.974 36.4138C121.657 36.2865 121.371 36.0912 121.137 35.8418C120.699 35.359 120.463 34.7264 120.478 34.0747C120.468 33.6933 120.535 33.3138 120.673 32.9585C120.812 32.6031 121.021 32.2791 121.287 32.0054C121.562 31.7271 121.892 31.5093 122.255 31.3659C122.619 31.2224 123.009 31.1565 123.4 31.1723C123.742 31.1541 124.084 31.2106 124.402 31.3379C124.72 31.4652 125.006 31.6603 125.241 31.9096C125.678 32.3908 125.914 33.0216 125.9 33.6717C125.91 34.0534 125.844 34.4333 125.706 34.7894C125.568 35.1454 125.36 35.4706 125.096 35.7459C124.82 36.0254 124.489 36.2439 124.124 36.3874C123.758 36.5309 123.367 36.5962 122.975 36.5791ZM123.068 35.5125C123.293 35.5176 123.515 35.4749 123.722 35.3871C123.928 35.2994 124.113 35.1687 124.265 35.0037C124.425 34.8392 124.551 34.6446 124.635 34.4311C124.72 34.2177 124.761 33.9896 124.757 33.7602C124.779 33.352 124.638 32.9517 124.366 32.6469C124.229 32.5082 124.065 32.4 123.884 32.3293C123.703 32.2585 123.508 32.2269 123.314 32.2364C123.091 32.2314 122.869 32.2741 122.663 32.3619C122.458 32.4496 122.273 32.5803 122.122 32.7452C121.805 33.0805 121.634 33.5275 121.645 33.9887C121.622 34.3982 121.761 34.8003 122.034 35.1069C122.169 35.2426 122.33 35.3487 122.508 35.4186C122.686 35.4884 122.877 35.5203 123.068 35.5125Z" fill="white"/>
<path d="M129.568 36.579C129.189 36.5944 128.812 36.5177 128.47 36.3554C128.128 36.1932 127.83 35.9503 127.602 35.6476C127.122 35.0266 126.99 34.2418 127.206 33.2932L127.309 32.8262C127.602 31.536 128.032 30.5996 128.607 30.0221C129.182 29.4445 130.032 29.0808 131.165 28.9284L132.814 28.7122L132.93 29.7689L131.209 29.9975C130.624 30.0496 130.061 30.251 129.575 30.5824C129.154 30.9306 128.842 31.3932 128.678 31.9144C129.106 31.5276 129.667 31.323 130.244 31.3443C130.554 31.3296 130.863 31.3803 131.153 31.4932C131.442 31.6061 131.704 31.7787 131.922 31.9996C132.14 32.2205 132.31 32.4849 132.419 32.7755C132.528 33.0661 132.575 33.3765 132.556 33.6864C132.563 34.0646 132.495 34.4404 132.356 34.7919C132.216 35.1434 132.008 35.4635 131.743 35.7336C131.459 36.0182 131.119 36.2404 130.745 36.386C130.37 36.5316 129.969 36.5973 129.568 36.579ZM129.951 32.3494C129.722 32.3423 129.494 32.3839 129.282 32.4716C129.07 32.5593 128.879 32.6911 128.722 32.8582C128.561 33.0262 128.434 33.2245 128.35 33.4418C128.265 33.659 128.225 33.8909 128.231 34.1238C128.221 34.3112 128.251 34.4985 128.319 34.6734C128.387 34.8484 128.491 35.007 128.624 35.1388C128.904 35.394 129.273 35.5283 129.651 35.5124C129.881 35.5199 130.11 35.4802 130.324 35.3959C130.538 35.3116 130.733 35.1843 130.896 35.022C131.059 34.8597 131.187 34.6658 131.272 34.4522C131.357 34.2385 131.398 34.0097 131.391 33.7798C131.405 33.5842 131.375 33.3881 131.306 33.2049C131.236 33.0217 131.128 32.8556 130.988 32.7181C130.702 32.4679 130.331 32.3361 129.951 32.3494Z" fill="white"/>
<path d="M133.466 36.4661L134.565 31.283H135.705L135.27 33.3351H137.767L138.202 31.283H139.347L138.249 36.4661H137.109L137.556 34.3501H135.051L134.607 36.4661H133.466Z" fill="white"/>
<path d="M142.735 36.579C142.393 36.5976 142.051 36.5412 141.733 36.4139C141.415 36.2865 141.129 36.0913 140.894 35.8418C140.456 35.359 140.22 34.7264 140.235 34.0747C140.225 33.6933 140.292 33.3138 140.431 32.9584C140.57 32.6031 140.778 32.2791 141.044 32.0054C141.319 31.7271 141.65 31.5092 142.014 31.3658C142.378 31.2223 142.769 31.1564 143.16 31.1723C143.502 31.1541 143.843 31.2106 144.16 31.338C144.478 31.4653 144.764 31.6604 144.998 31.9096C145.436 32.3902 145.672 33.0214 145.657 33.6717C145.667 34.0534 145.601 34.4333 145.463 34.7894C145.325 35.1454 145.118 35.4706 144.853 35.7459C144.578 36.0253 144.247 36.2438 143.882 36.3873C143.517 36.5308 143.127 36.5962 142.735 36.579ZM142.828 35.5124C143.052 35.5173 143.275 35.4744 143.481 35.3867C143.688 35.299 143.873 35.1684 144.025 35.0037C144.185 34.8392 144.311 34.6446 144.395 34.4312C144.48 34.2177 144.521 33.9896 144.517 33.7602C144.538 33.3525 144.399 32.9526 144.128 32.6468C143.992 32.5083 143.827 32.4002 143.646 32.3295C143.465 32.2587 143.271 32.227 143.076 32.2364C142.853 32.2312 142.631 32.2739 142.425 32.3617C142.22 32.4494 142.035 32.5802 141.884 32.7452C141.727 32.9109 141.604 33.106 141.522 33.3194C141.44 33.5328 141.401 33.7603 141.408 33.9887C141.395 34.1915 141.423 34.3948 141.49 34.5867C141.556 34.7787 141.66 34.9555 141.796 35.1069C141.93 35.2424 142.092 35.3484 142.269 35.4183C142.447 35.4881 142.637 35.5201 142.828 35.5124Z" fill="white"/>
</g>
<defs>
<linearGradient id="paint0_linear_456_12590" x1="0.000644752" y1="20.0023" x2="37.6318" y2="20.0023" gradientUnits="userSpaceOnUse">
<stop stop-color="#079BE1"/>
<stop offset="1" stop-color="#1B63B8"/>
</linearGradient>
</defs>
</svg>
