<svg width="14" height="14" viewBox="0 0 14 14" fill="none" xmlns="http://www.w3.org/2000/svg">
<g clip-path="url(#clip0_456_3859)">
<mask id="path-1-inside-1_456_3859" fill="white">
<path d="M12.3092 0H2.41365C1.63291 0 1 0.632915 1 1.41365V12.1252C1 13.1043 1.97126 13.7869 2.89249 13.4552L3.99638 13.0578C4.34132 12.9337 4.72101 12.9483 5.05533 13.0988L6.78133 13.8755C7.15025 14.0415 7.57263 14.0415 7.94156 13.8755L9.66755 13.0988C10.0019 12.9483 10.3816 12.9337 10.7265 13.0578L11.8304 13.4552C12.7516 13.7869 13.7229 13.1043 13.7229 12.1252V1.41365C13.7229 0.632914 13.09 0 12.3092 0Z"/>
</mask>
<path d="M4.53413 3.03413C4.25799 3.03413 4.03413 3.25799 4.03413 3.53413C4.03413 3.81028 4.25799 4.03413 4.53413 4.03413V3.03413ZM7.36144 4.03413C7.63758 4.03413 7.86144 3.81028 7.86144 3.53413C7.86144 3.25799 7.63758 3.03413 7.36144 3.03413V4.03413ZM4.53413 5.86144C4.25799 5.86144 4.03413 6.0853 4.03413 6.36144C4.03413 6.63759 4.25799 6.86144 4.53413 6.86144V5.86144ZM10.1888 6.86144C10.4649 6.86144 10.6888 6.63759 10.6888 6.36144C10.6888 6.0853 10.4649 5.86144 10.1888 5.86144V6.86144ZM4.53413 8.68875C4.25799 8.68875 4.03413 8.91261 4.03413 9.18875C4.03413 9.46489 4.25799 9.68875 4.53413 9.68875V8.68875ZM10.1888 9.68875C10.4649 9.68875 10.6888 9.46489 10.6888 9.18875C10.6888 8.91261 10.4649 8.68875 10.1888 8.68875V9.68875ZM4.53413 4.03413H7.36144V3.03413H4.53413V4.03413ZM4.53413 6.86144H10.1888V5.86144H4.53413V6.86144ZM4.53413 9.68875H10.1888V8.68875H4.53413V9.68875ZM11.8304 13.4552L11.4917 14.3961L11.8304 13.4552ZM10.7265 13.0578L11.0652 12.117L11.0652 12.117L10.7265 13.0578ZM9.66755 13.0988L9.25719 12.1869L9.25719 12.1869L9.66755 13.0988ZM7.94156 13.8755L7.53119 12.9636L7.53119 12.9636L7.94156 13.8755ZM6.78133 13.8755L7.19169 12.9636H7.19169L6.78133 13.8755ZM5.05533 13.0988L5.4657 12.1869L5.46569 12.1869L5.05533 13.0988ZM3.99638 13.0578L3.65767 12.117L3.65766 12.117L3.99638 13.0578ZM2.89249 13.4552L3.23121 14.3961H3.23121L2.89249 13.4552ZM2.41365 1H12.3092V-1H2.41365V1ZM12.7229 1.41365V12.1252H14.7229V1.41365H12.7229ZM12.1691 12.5144L11.0652 12.117L10.3878 13.9987L11.4917 14.3961L12.1691 12.5144ZM9.25719 12.1869L7.53119 12.9636L8.35192 14.7874L10.0779 14.0107L9.25719 12.1869ZM7.19169 12.9636L5.4657 12.1869L4.64497 14.0107L6.37096 14.7874L7.19169 12.9636ZM3.65766 12.117L2.55377 12.5144L3.23121 14.3961L4.3351 13.9987L3.65766 12.117ZM2 12.1252V1.41365H0V12.1252H2ZM2.55377 12.5144C2.2842 12.6114 2 12.4117 2 12.1252H0C0 13.7969 1.65832 14.9624 3.23121 14.3961L2.55377 12.5144ZM5.46569 12.1869C4.89488 11.93 4.24661 11.9049 3.65767 12.117L4.3351 13.9987C4.43604 13.9624 4.54714 13.9667 4.64497 14.0107L5.46569 12.1869ZM7.53119 12.9636C7.42324 13.0121 7.29965 13.0121 7.19169 12.9636L6.37096 14.7874C7.00086 15.0709 7.72202 15.0709 8.35192 14.7874L7.53119 12.9636ZM11.0652 12.117C10.4763 11.9049 9.828 11.93 9.25719 12.1869L10.0779 14.0107C10.1757 13.9667 10.2868 13.9624 10.3878 13.9987L11.0652 12.117ZM12.7229 12.1252C12.7229 12.4117 12.4387 12.6114 12.1691 12.5144L11.4917 14.3961C13.0646 14.9624 14.7229 13.7969 14.7229 12.1252H12.7229ZM12.3092 1C12.5377 1 12.7229 1.1852 12.7229 1.41365H14.7229C14.7229 0.0806301 13.6423 -1 12.3092 -1V1ZM2.41365 -1C1.08063 -1 0 0.0806305 0 1.41365H2C2 1.1852 2.1852 1 2.41365 1V-1Z" fill="#102B51" mask="url(#path-1-inside-1_456_3859)"/>
</g>
<defs>
<clipPath id="clip0_456_3859">
<rect width="14" height="14" fill="white"/>
</clipPath>
</defs>
</svg>
