<svg width="14" height="14" viewBox="0 0 14 14" fill="none" xmlns="http://www.w3.org/2000/svg">
<path d="M2.2 3.47684L2.68616 11.4488C2.7399 12.3203 3.47311 13 4.36148 13H9.39335C10.2623 13 10.9875 12.3488 11.0662 11.4984L11.8 3.47684M2.2 3.47684C1.47786 3.5263 1 3.5651 1 3.5651M2.2 3.47684C3.46834 3.38998 5.49023 3.27026 7 3.27026C8.50977 3.27026 10.5317 3.38998 11.8 3.47684M11.8 3.47684C12.5221 3.5263 13 3.5651 13 3.5651" stroke="#9CA6B4" stroke-linecap="round"/>
<path d="M5.19995 2.94595V2C5.19995 1.44772 5.64767 1 6.19995 1H7.79995C8.35224 1 8.79995 1.44772 8.79995 2V2.94595" stroke="#9CA6B4" stroke-linecap="round"/>
<path d="M4.6001 2.94604L5.8001 2.94605" stroke="#9CA6B4" stroke-linecap="round"/>
<path d="M8.19995 2.94604H9.39995" stroke="#9CA6B4" stroke-linecap="round"/>
<path d="M7 6.18921V10.0811" stroke="#9CA6B4" stroke-linecap="round"/>
<path d="M4.6001 6.83789L4.6001 9.43249" stroke="#9CA6B4" stroke-linecap="round"/>
<path d="M9.3999 6.83789L9.3999 9.43249" stroke="#9CA6B4" stroke-linecap="round"/>
</svg>
