<svg width="18" height="18" viewBox="0 0 18 18" fill="none" xmlns="http://www.w3.org/2000/svg">
<path d="M4.2 5.47684L4.68616 13.4488C4.7399 14.3203 5.47311 15 6.36148 15H11.3934C12.2623 15 12.9875 14.3488 13.0662 13.4984L13.8 5.47684M4.2 5.47684C3.47786 5.5263 3 5.5651 3 5.5651M4.2 5.47684C5.46834 5.38998 7.49023 5.27026 9 5.27026C10.5098 5.27026 12.5317 5.38998 13.8 5.47684M13.8 5.47684C14.5221 5.5263 15 5.5651 15 5.5651" stroke="white" stroke-linecap="round"/>
<path d="M7.19995 4.94595V4C7.19995 3.44772 7.64767 3 8.19995 3H9.79995C10.3522 3 10.8 3.44772 10.8 4V4.94595" stroke="white" stroke-linecap="round"/>
<path d="M6.6001 4.94604L7.8001 4.94605" stroke="white" stroke-linecap="round"/>
<path d="M10.2 4.94604H11.4" stroke="white" stroke-linecap="round"/>
<path d="M9 8.18921V12.0811" stroke="white" stroke-linecap="round"/>
<path d="M6.6001 8.83789L6.6001 11.4325" stroke="white" stroke-linecap="round"/>
<path d="M11.3999 8.83789L11.3999 11.4325" stroke="white" stroke-linecap="round"/>
</svg>
