<svg width="21" height="19" viewBox="0 0 21 19" fill="none" xmlns="http://www.w3.org/2000/svg">
<path d="M4.41271 12.7347V12.7347C3.5991 12.8907 2.81307 12.3576 2.65706 11.544L2.02729 8.25967C1.73608 6.74094 2.73095 5.27373 4.24968 4.98251C5.29006 4.78302 6.44967 4.56067 7.39265 4.37985C8.40314 4.18609 9.66595 3.96315 10.7647 3.77401C12.177 3.53088 13.5187 4.46743 13.7886 5.87493V5.87493" stroke="#3372BF" stroke-linecap="round"/>
<path d="M4.5 8.34992V13.7499C4.5 14.5783 5.17157 15.2499 6 15.2499H6.18193C6.49567 15.2499 6.75 15.5043 6.75 15.818C6.75 16.4365 6.8022 17.3514 7.42042 17.3341C7.83984 17.3223 7.98977 16.8096 8.21787 16.4575C8.70557 15.7045 9.54159 15.2499 10.4387 15.2499H14.4C15.5598 15.2499 16.5 14.3099 16.5 13.1501V8.39988C16.5 7.26581 15.7587 6.27726 14.625 6.24991C13.4034 6.22043 11.7002 6.24992 10.5 6.24992H6.59969C5.43989 6.24992 4.5 7.19012 4.5 8.34992Z" stroke="#3372BF" stroke-linecap="round"/>
<circle cx="7.5" cy="10.75" r="0.75" fill="#3372BF"/>
<circle cx="10.5" cy="10.75" r="0.75" fill="#3372BF"/>
<circle cx="13.5" cy="10.75" r="0.75" fill="#3372BF"/>
<rect x="11.5" y="0.5" width="9" height="9" rx="4.5" fill="#3372BF" stroke="#F4F5FD"/>
</svg>
