<svg width="18" height="18" viewBox="0 0 18 18" fill="none" xmlns="http://www.w3.org/2000/svg">
<path d="M1.5 6.75V5.25C1.5 3 3 1.5 5.25 1.5H12.75C15 1.5 16.5 3 16.5 5.25V6.75" stroke="white" stroke-miterlimit="10" stroke-linecap="round" stroke-linejoin="round"/>
<path d="M1.5 11.25V12.75C1.5 15 3 16.5 5.25 16.5H12.75C15 16.5 16.5 15 16.5 12.75V11.25" stroke="white" stroke-miterlimit="10" stroke-linecap="round" stroke-linejoin="round"/>
<path d="M5.02502 6.94501L9.00003 9.24751L12.945 6.96002" stroke="white" stroke-linecap="round" stroke-linejoin="round"/>
<path d="M9 13.3275V9.23999" stroke="white" stroke-linecap="round" stroke-linejoin="round"/>
<path d="M8.06998 4.71748L5.66999 6.0525C5.12999 6.3525 4.67999 7.11 4.67999 7.7325V10.275C4.67999 10.8975 5.12249 11.655 5.66999 11.955L8.06998 13.29C8.57998 13.575 9.41999 13.575 9.93749 13.29L12.3375 11.955C12.8775 11.655 13.3275 10.8975 13.3275 10.275V7.7325C13.3275 7.11 12.885 6.3525 12.3375 6.0525L9.93749 4.71748C9.41999 4.42498 8.57998 4.42498 8.06998 4.71748Z" stroke="white" stroke-linecap="round" stroke-linejoin="round"/>
</svg>
