<svg width="18" height="18" viewBox="0 0 18 18" fill="none" xmlns="http://www.w3.org/2000/svg">
<path d="M4.41271 11.7347V11.7347C3.5991 11.8907 2.81307 11.3576 2.65706 10.544L2.02729 7.25967C1.73608 5.74094 2.73095 4.27373 4.24968 3.98251C5.29006 3.78302 6.44967 3.56067 7.39265 3.37985C8.40314 3.18609 9.66595 2.96315 10.7647 2.77401C12.177 2.53088 13.5187 3.46743 13.7886 4.87493V4.87493" stroke="#9CA6B4" stroke-linecap="round"/>
<path d="M4.5 7.34992V12.7499C4.5 13.5783 5.17157 14.2499 6 14.2499H6.18193C6.49567 14.2499 6.75 14.5043 6.75 14.818C6.75 15.4365 6.8022 16.3514 7.42042 16.3341C7.83984 16.3223 7.98977 15.8096 8.21787 15.4575C8.70557 14.7045 9.54159 14.2499 10.4387 14.2499H14.4C15.5598 14.2499 16.5 13.3099 16.5 12.1501V7.39988C16.5 6.26581 15.7587 5.27726 14.625 5.24991C13.4034 5.22043 11.7002 5.24992 10.5 5.24992H6.59969C5.43989 5.24992 4.5 6.19012 4.5 7.34992Z" stroke="#9CA6B4" stroke-linecap="round"/>
<circle cx="7.5" cy="9.75" r="0.75" fill="#9CA6B4"/>
<circle cx="10.5" cy="9.75" r="0.75" fill="#9CA6B4"/>
<circle cx="13.5" cy="9.75" r="0.75" fill="#9CA6B4"/>
</svg>
