<svg width="18" height="18" viewBox="0 0 18 18" fill="none" xmlns="http://www.w3.org/2000/svg">
<path d="M1.5 6.75V5.25C1.5 3 3 1.5 5.25 1.5H12.75C15 1.5 16.5 3 16.5 5.25V6.75" stroke="#9CA6B4" stroke-miterlimit="10" stroke-linecap="round" stroke-linejoin="round"/>
<path d="M1.5 11.25V12.75C1.5 15 3 16.5 5.25 16.5H12.75C15 16.5 16.5 15 16.5 12.75V11.25" stroke="#9CA6B4" stroke-miterlimit="10" stroke-linecap="round" stroke-linejoin="round"/>
<path d="M5.02502 6.94507L9.00003 9.24757L12.945 6.96008" stroke="#9CA6B4" stroke-linecap="round" stroke-linejoin="round"/>
<path d="M9 13.3275V9.23999" stroke="#9CA6B4" stroke-linecap="round" stroke-linejoin="round"/>
<path d="M8.07005 4.71742L5.67005 6.05244C5.13005 6.35244 4.68005 7.10994 4.68005 7.73244V10.2749C4.68005 10.8974 5.12255 11.6549 5.67005 11.9549L8.07005 13.2899C8.58005 13.5749 9.42005 13.5749 9.93755 13.2899L12.3375 11.9549C12.8775 11.6549 13.3276 10.8974 13.3276 10.2749V7.73244C13.3276 7.10994 12.885 6.35244 12.3375 6.05244L9.93755 4.71742C9.42005 4.42492 8.58005 4.42492 8.07005 4.71742Z" stroke="#9CA6B4" stroke-linecap="round" stroke-linejoin="round"/>
</svg>
