<svg width="18" height="18" viewBox="0 0 18 18" fill="none" xmlns="http://www.w3.org/2000/svg">
<g opacity="0.4">
<path d="M3 15H15M10.1896 4.54114C10.1896 4.54114 10.1896 5.63089 11.2794 6.72064C12.3691 7.81039 13.4589 7.81039 13.4589 7.81039M5.87975 12.992L8.16823 12.6651C8.49833 12.618 8.80424 12.465 9.04003 12.2292L14.5486 6.72064C15.1505 6.11879 15.1505 5.14299 14.5486 4.54114L13.4589 3.45139C12.857 2.84954 11.8812 2.84954 11.2794 3.45139L5.77078 8.95997C5.53499 9.19576 5.38203 9.50167 5.33488 9.83177L5.00795 12.1202C4.9353 12.6288 5.3712 13.0647 5.87975 12.992Z" stroke="#9CA6B4" stroke-linecap="round"/>
</g>
</svg>
