<svg width="60" height="60" viewBox="0 0 60 60" fill="none" xmlns="http://www.w3.org/2000/svg">
<g opacity="0.2">
<path d="M10 36.4753V18.3063C10 13.477 14.056 9.69488 18.7496 10.1474L21.0407 10.3683C22.9967 10.5569 24.8647 9.49488 25.7433 7.69487C27.4972 4.10171 32.5028 4.10171 34.2567 7.69487C35.1353 9.49488 37.0033 10.5569 38.9593 10.3683L41.2504 10.1474C45.944 9.69488 50 13.477 50 18.3063V36.4753C50 38.8956 48.9556 41.1921 47.1467 42.7492L35.1467 53.0789C32.1711 55.6404 27.8288 55.6404 24.8533 53.0789L12.8533 42.7492C11.0444 41.1921 10 38.8956 10 36.4753Z" stroke="#9CA6B4" stroke-width="1.5" stroke-linecap="round"/>
<path d="M22.5 30L27.2368 35L37.5 25" stroke="#9CA6B4" stroke-width="1.5" stroke-linecap="round" stroke-linejoin="round"/>
</g>
</svg>
