<svg width="13" height="12" viewBox="0 0 13 12" fill="none" xmlns="http://www.w3.org/2000/svg">
<path d="M4.51582 1.35448L4.98064 1.73006C5.73994 2.34359 5.83583 3.46339 5.1919 4.19725L5.12738 4.27077C4.66591 4.79669 4.54279 5.57345 5.00377 6.09919C5.44467 6.60203 6.03638 7.04441 6.89591 7.52635C7.5737 7.90638 8.42118 7.72607 8.93349 7.14221L8.97838 7.09106C9.58909 6.39505 10.6423 6.30474 11.3624 6.88663L11.7938 7.23517C12.4125 7.73509 12.6278 8.60766 12.1831 9.26687C11.7634 9.88901 11.2952 10.3758 10.7426 10.7736C10.3901 11.0274 9.93593 11.0838 9.51628 10.9711C5.41349 9.86937 2.93152 7.86767 1.15094 4.16014C0.995897 3.83731 0.945129 3.46615 1.07085 3.13071C1.3364 2.42219 1.83302 1.8255 2.60064 1.25459C3.17328 0.828685 3.96114 0.906294 4.51582 1.35448Z" stroke="white"/>
</svg>
