<svg width="12" height="11" viewBox="0 0 12 11" fill="none" xmlns="http://www.w3.org/2000/svg">
<path d="M3 3.5H2C1.44772 3.5 1 3.94772 1 4.5V9C1 9.55228 1.44772 10 2 10H3C3.55228 10 4 9.55228 4 9V4.5C4 3.94772 3.55228 3.5 3 3.5Z" stroke="white" stroke-linecap="round" stroke-linejoin="round"/>
<path d="M7.93845 10H6.10555C5.7107 10 5.32469 9.88312 4.99615 9.6641L4.22265 9.14843C4.08355 9.0557 4 8.89958 4 8.73241V4.63278C4 4.54577 4.02271 4.46026 4.06588 4.38471L6 1H6.66435C7.66272 1 8.25821 2.11268 7.70442 2.94337L7 4H9.71922C10.3698 4 10.8472 4.61139 10.6894 5.24254L9.87873 8.48507C9.65615 9.37541 8.85618 10 7.93845 10Z" stroke="white" stroke-linecap="round" stroke-linejoin="round"/>
</svg>
