<svg width="21" height="21" viewBox="0 0 21 21" fill="none" xmlns="http://www.w3.org/2000/svg">
<path d="M17.0615 19.7571C18.6794 19.3412 19.875 17.8727 19.875 16.125V4.875C19.875 2.80393 18.1961 1.125 16.125 1.125H4.875C2.80393 1.125 1.125 2.80393 1.125 4.875V16.125C1.125 17.8727 2.32061 19.3412 3.93854 19.7571M17.0615 19.7571C16.7621 19.8341 16.4483 19.875 16.125 19.875H4.875C4.55166 19.875 4.23787 19.8341 3.93854 19.7571M17.0615 19.7571C16.9986 16.1871 14.085 13.3125 10.5 13.3125C6.915 13.3125 4.00142 16.1871 3.93854 19.7571M13.3125 7.6875C13.3125 6.1342 12.0533 4.875 10.5 4.875C8.9467 4.875 7.6875 6.1342 7.6875 7.6875C7.6875 9.2408 8.9467 10.5 10.5 10.5C12.0533 10.5 13.3125 9.2408 13.3125 7.6875Z" stroke="white" stroke-width="1.1"/>
</svg>
