<svg width="7" height="7" viewBox="0 0 7 7" fill="none" xmlns="http://www.w3.org/2000/svg">
<path fill-rule="evenodd" clip-rule="evenodd" d="M1.35355 0.646447C1.15829 0.451184 0.841709 0.451184 0.646447 0.646447C0.451184 0.841709 0.451184 1.15829 0.646447 1.35355L2.83469 3.5418L0.646447 5.73004C0.451184 5.9253 0.451184 6.24188 0.646447 6.43715C0.841709 6.63241 1.15829 6.63241 1.35355 6.43715L3.5418 4.2489L5.73002 6.43713C5.92529 6.63239 6.24187 6.63239 6.43713 6.43713C6.63239 6.24187 6.63239 5.92529 6.43713 5.73002L4.2489 3.5418L6.43713 1.35357C6.63239 1.15831 6.63239 0.841725 6.43713 0.646463C6.24187 0.451201 5.92528 0.451201 5.73002 0.646463L3.5418 2.83469L1.35355 0.646447Z" fill="#102B51"/>
</svg>
