<svg width="14" height="12" viewBox="0 0 14 12" fill="none" xmlns="http://www.w3.org/2000/svg">
<path d="M6.45051 0.297943C6.17207 0.137209 5.82903 0.137209 5.5506 0.297943L1.4256 2.67919C1.37446 2.70871 1.32692 2.74284 1.28339 2.78087C1.18 2.80537 1.08646 2.8708 1.02913 2.97013C0.971772 3.06949 0.961897 3.18326 0.992426 3.28507C0.981308 3.34165 0.975551 3.39974 0.975551 3.45864V8.22103C0.975551 8.54258 1.14711 8.83971 1.4256 9.00047L5.80057 11.526C5.92433 11.5975 6.07681 11.5975 6.20056 11.526C6.32432 11.4546 6.40055 11.3225 6.40055 11.1796V6.07095L10.2256 3.86288V5.12512C10.2256 5.34604 10.4046 5.52512 10.6256 5.52512C10.8465 5.52512 11.0256 5.34604 11.0256 5.12512V3.45864C11.0256 3.39974 11.0198 3.34165 11.0087 3.28507C11.0392 3.18326 11.0293 3.06949 10.972 2.97013C10.9146 2.8708 10.8211 2.80537 10.7177 2.78087C10.6742 2.74284 10.6266 2.70871 10.5755 2.67919L6.45051 0.297943ZM1.77555 8.22103V3.86288L5.60055 6.07095V10.4868L1.82556 8.30763C1.79461 8.28977 1.77555 8.25675 1.77555 8.22103ZM9.82561 3.17003L6.00055 5.37813L2.17549 3.17003L5.95056 0.990787C5.98149 0.972928 6.01961 0.972928 6.05055 0.990787L9.82561 3.17003ZM10.2092 7.41748L11.6102 8.72506H8.35715C8.13623 8.72506 7.95715 8.90415 7.95715 9.12506C7.95715 9.34597 8.13623 9.52506 8.35715 9.52506H11.6102L10.2092 10.8326C10.0477 10.9834 10.039 11.2365 10.1897 11.398C10.3405 11.5595 10.5936 11.5682 10.7551 11.4175L12.8979 9.41749C12.979 9.34183 13.025 9.23594 13.025 9.12506C13.025 9.01419 12.979 8.90829 12.8979 8.83264L10.7551 6.83264C10.5936 6.68191 10.3405 6.69063 10.1897 6.85213C10.039 7.01363 10.0477 7.26675 10.2092 7.41748Z" fill="#9CA6B4" stroke="#9CA6B4" stroke-width="0.05" stroke-linecap="round" stroke-linejoin="round"/>
</svg>
