<svg width="16" height="16" viewBox="0 0 16 16" fill="none" xmlns="http://www.w3.org/2000/svg">
<circle cx="8.00008" cy="11.3333" r="0.666667" transform="rotate(-180 8.00008 11.3333)" fill="white"/>
<path d="M8 9.33323L8 4.66657M2 6.08787V9.91197C2 10.9275 2.5282 11.8659 3.38564 12.3737L6.61436 14.2858C7.4718 14.7935 8.5282 14.7935 9.38564 14.2858L12.6144 12.3737C13.4718 11.8659 14 10.9275 14 9.91197V6.08787C14 5.07232 13.4718 4.13391 12.6144 3.62613L9.38564 1.71408C8.5282 1.20631 7.4718 1.20631 6.61436 1.71408L3.38564 3.62613C2.5282 4.13391 2 5.07232 2 6.08787Z" stroke="white" stroke-width="1.1" stroke-linecap="round"/>
</svg>
