<svg width="22" height="22" viewBox="0 0 22 22" fill="none" xmlns="http://www.w3.org/2000/svg">
<rect width="22" height="22" rx="4" fill="#FF8800"/>
<g clip-path="url(#clip0_456_9635)">
<path fill-rule="evenodd" clip-rule="evenodd" d="M11.4513 11.3551C10.3138 11.3504 9.22424 10.8997 8.4199 10.1012C7.61556 9.3027 7.1616 8.22104 7.15689 7.09179C7.15986 5.95651 7.61139 4.8677 8.41442 4.05942C9.21746 3.25113 10.3079 2.7879 11.4513 2.76929C12.0205 2.76844 12.5842 2.8801 13.1095 3.09776C13.6348 3.31542 14.1113 3.63473 14.511 4.03707C14.9107 4.43941 15.2257 4.91672 15.4377 5.44117C15.6497 5.96564 15.7544 6.52674 15.7457 7.09179C15.7529 7.65363 15.6467 8.21122 15.4335 8.73169C15.2202 9.25218 14.9042 9.72501 14.5039 10.1223C14.1037 10.5196 13.6274 10.8334 13.1032 11.0451C12.5789 11.2568 12.0172 11.3622 11.4513 11.3551ZM11.4513 5.31542C11.2112 5.31529 10.9736 5.36312 10.7525 5.45607C10.5314 5.54902 10.3314 5.68518 10.1645 5.85646C9.99751 6.02773 9.86699 6.23061 9.78064 6.45301C9.69432 6.67542 9.65395 6.91279 9.66196 7.15099C9.65841 7.38252 9.70274 7.6123 9.79218 7.82615C9.88164 8.04001 10.0143 8.23336 10.182 8.39431C10.3497 8.55523 10.5489 8.68031 10.7672 8.76182C10.9855 8.84331 11.2183 8.87951 11.4513 8.86814C11.6828 8.87365 11.9131 8.83342 12.1288 8.74982C12.3444 8.6662 12.5413 8.54088 12.7077 8.38111C12.8742 8.22134 13.0071 8.03032 13.0985 7.81915C13.19 7.60797 13.2383 7.38086 13.2406 7.15099C13.2486 6.91279 13.2082 6.67542 13.1219 6.45301C13.0356 6.23061 12.9051 6.02773 12.7381 5.85646C12.5711 5.68518 12.3712 5.54902 12.1501 5.45607C11.929 5.36312 11.6914 5.31529 11.4513 5.31542ZM13.181 14.9078L15.6264 17.2763C15.74 17.389 15.8301 17.5229 15.8916 17.6702C15.9531 17.8175 15.9848 17.9754 15.9848 18.1349C15.9848 18.2943 15.9531 18.4522 15.8916 18.5995C15.8301 18.7469 15.74 18.8807 15.6264 18.9934C15.5206 19.1191 15.3883 19.2201 15.2389 19.2894C15.0894 19.3588 14.9265 19.3947 14.7616 19.3947C14.5966 19.3947 14.4337 19.3588 14.2842 19.2894C14.1348 19.2201 14.0025 19.1191 13.8967 18.9934L11.4513 16.625L9.06552 18.9934C8.94948 19.1112 8.80997 19.2036 8.65592 19.2647C8.50187 19.3259 8.33666 19.3545 8.17085 19.3487C7.84023 19.3365 7.52409 19.2109 7.27618 18.9934C7.16257 18.8807 7.07243 18.7469 7.01094 18.5995C6.94945 18.4522 6.9178 18.2943 6.9178 18.1349C6.9178 17.9754 6.94945 17.8175 7.01094 17.6702C7.07243 17.5229 7.16257 17.389 7.27618 17.2763L9.78125 14.9078C8.88627 14.6302 8.02587 14.2528 7.21654 13.7828C6.94014 13.6028 6.74313 13.3252 6.66558 13.0062C6.58802 12.6872 6.63574 12.3509 6.79902 12.0656C6.89004 11.9223 7.00948 11.7988 7.15008 11.7027C7.29068 11.6066 7.4495 11.5399 7.61688 11.5067C7.78426 11.4734 7.95669 11.4744 8.1237 11.5094C8.29071 11.5444 8.4488 11.6128 8.58836 11.7103C9.46137 12.2331 10.4616 12.5094 11.4811 12.5094C12.5006 12.5094 13.5008 12.2331 14.3739 11.7103C14.5134 11.6128 14.6715 11.5444 14.8385 11.5094C15.0055 11.4744 15.178 11.4734 15.3453 11.5067C15.5127 11.5399 15.6715 11.6066 15.8121 11.7027C15.9527 11.7988 16.0722 11.9223 16.1632 12.0656C16.3323 12.344 16.3894 12.6754 16.323 12.9938C16.2567 13.3121 16.0718 13.5939 15.8053 13.7828C14.9752 14.253 14.095 14.6304 13.181 14.9078Z" fill="white"/>
</g>
<defs>
<clipPath id="clip0_456_9635">
<rect width="16.6154" height="16.6154" fill="white" transform="translate(3.23071 2.76929)"/>
</clipPath>
</defs>
</svg>
