<svg width="23" height="23" viewBox="0 0 23 23" fill="none" xmlns="http://www.w3.org/2000/svg">
<path fill-rule="evenodd" clip-rule="evenodd" d="M10.3848 0.0108402C10.2779 0.0233879 9.99044 0.0609201 9.74603 0.0941215C9.50163 0.127379 9.0267 0.224207 8.69064 0.309321C8.35458 0.39449 7.82967 0.557277 7.52416 0.67115C7.21865 0.784968 6.71873 1.00311 6.41322 1.1559C6.10772 1.3087 5.60779 1.59685 5.30229 1.79628C4.99678 1.99571 4.57185 2.30252 4.35799 2.47819C4.14414 2.6538 3.79775 2.96722 3.58828 3.1747C3.37881 3.38218 3.0382 3.75339 2.8314 3.99963C2.6246 4.24586 2.29254 4.69719 2.09357 5.00256C1.89455 5.30792 1.6067 5.80761 1.45384 6.11297C1.30097 6.41834 1.08473 6.91347 0.973246 7.21329C0.861763 7.5131 0.709843 7.9878 0.635632 8.26818C0.561422 8.54856 0.457271 9.01533 0.404224 9.30543C0.331124 9.70512 0.307739 10.1354 0.307739 11.0821C0.307739 12.0288 0.331124 12.4591 0.404224 12.8588C0.457271 13.1489 0.561422 13.6156 0.635632 13.896C0.709843 14.1764 0.861763 14.6511 0.973246 14.9509C1.08473 15.2507 1.30097 15.7458 1.45384 16.0512C1.6067 16.3566 1.89499 16.8563 2.09451 17.1616C2.29404 17.467 2.60099 17.8917 2.77674 18.1055C2.95243 18.3192 3.266 18.6655 3.47357 18.8748C3.68115 19.0842 4.05254 19.4247 4.29889 19.6314C4.54524 19.8381 4.99678 20.17 5.30229 20.3688C5.60779 20.5678 6.10772 20.8555 6.41322 21.0083C6.71873 21.1611 7.2141 21.3772 7.51405 21.4886C7.814 21.6001 8.28893 21.7519 8.56944 21.8261C8.84995 21.9003 9.31693 22.0044 9.60717 22.0574C10.007 22.1305 10.4375 22.1538 11.3847 22.1538C12.3318 22.1538 12.7623 22.1305 13.1622 22.0574C13.4524 22.0044 13.9194 21.9003 14.1999 21.8261C14.4804 21.7519 14.9553 21.6001 15.2553 21.4886C15.5552 21.3772 16.0506 21.1611 16.3561 21.0083C16.6616 20.8555 17.1615 20.5678 17.467 20.3688C17.7725 20.17 18.2241 19.8381 18.4704 19.6314C18.7168 19.4247 19.0882 19.0842 19.2958 18.8748C19.5033 18.6655 19.8169 18.3192 19.9926 18.1055C20.1683 17.8917 20.4753 17.467 20.6748 17.1616C20.8743 16.8563 21.1626 16.3566 21.3155 16.0512C21.4684 15.7458 21.6846 15.2507 21.7961 14.9509C21.9076 14.6511 22.0595 14.1764 22.1337 13.896C22.2079 13.6156 22.3121 13.1489 22.3651 12.8588C22.4382 12.4591 22.4616 12.0288 22.4616 11.0821C22.4616 10.1354 22.4382 9.70512 22.3651 9.30543C22.3121 9.01533 22.2079 8.54856 22.1337 8.26818C22.0595 7.9878 21.9076 7.5131 21.7961 7.21329C21.6846 6.91347 21.4684 6.41834 21.3155 6.11297C21.1626 5.80761 20.8748 5.30792 20.6758 5.00256C20.4768 4.69719 20.1447 4.24586 19.9379 3.99963C19.7311 3.75339 19.3905 3.38218 19.181 3.1747C18.9716 2.96722 18.6252 2.6538 18.4113 2.47819C18.1975 2.30252 17.7725 1.99571 17.467 1.79628C17.1615 1.59685 16.6616 1.3087 16.3561 1.1559C16.0506 1.00311 15.5552 0.786967 15.2553 0.675536C14.9553 0.564106 14.4804 0.412367 14.1999 0.338247C13.9194 0.264182 13.4649 0.163412 13.1899 0.114442C12.8868 0.0604204 12.2747 0.0179469 11.6346 0.00662063C11.0542 -0.00365074 10.4917 -0.00176303 10.3848 0.0108402ZM16.7368 6.87711C16.8218 6.9912 16.8489 7.10513 16.8426 7.32128C16.8379 7.48123 16.4207 9.5586 15.9154 11.9378C15.4101 14.3169 14.9505 16.3531 14.8941 16.4627C14.8376 16.5723 14.728 16.693 14.6506 16.7309C14.5376 16.7862 14.4618 16.7854 14.2665 16.7265C14.1085 16.6789 13.5556 16.3064 12.69 15.6646C11.9568 15.121 11.3295 14.6546 11.2961 14.6284C11.2569 14.5976 10.9583 14.8462 10.4575 15.3266C10.0262 15.7403 9.61411 16.089 9.5324 16.1096C9.38653 16.1462 9.38498 16.1434 9.38576 15.849C9.3862 15.6854 9.4227 15.0518 9.4668 14.4411L9.54706 13.3307L9.76153 13.1364C9.87946 13.0295 11.049 11.97 12.3606 10.782C13.6721 9.59397 14.7452 8.59459 14.7452 8.56117C14.7452 8.52774 14.6881 8.49227 14.6184 8.48238C14.529 8.46972 13.5417 9.06402 11.2748 10.495C9.41503 11.669 8.00403 12.5252 7.92999 12.5246C7.85955 12.524 7.18171 12.3266 6.42372 12.086C5.66573 11.8453 4.99711 11.6045 4.93784 11.551C4.87863 11.4974 4.83014 11.3972 4.83014 11.3283C4.83014 11.2588 4.90052 11.1438 4.98834 11.07C5.07532 10.9968 5.64396 10.7446 6.25203 10.5096C6.86004 10.2745 9.31971 9.32136 11.7179 8.3915C15.5341 6.91186 16.1123 6.70222 16.3505 6.71227C16.576 6.72176 16.6422 6.74997 16.7368 6.87711Z" fill="#36ADE1"/>
</svg>
