<svg width="23" height="22" viewBox="0 0 23 22" fill="none" xmlns="http://www.w3.org/2000/svg">
<g clip-path="url(#clip0_456_9630)">
<path d="M0.384644 10.56C0.384644 5.58195 0.384644 3.09295 1.93112 1.54648C3.4776 0 5.96659 0 10.9446 0H11.8246C16.8027 0 19.2917 0 20.8382 1.54648C22.3846 3.09295 22.3846 5.58195 22.3846 10.56V11.44C22.3846 16.4181 22.3846 18.907 20.8382 20.4535C19.2917 22 16.8027 22 11.8246 22H10.9446C5.96659 22 3.4776 22 1.93112 20.4535C0.384644 18.907 0.384644 16.4181 0.384644 11.44V10.56Z" fill="#0077FF"/>
<path d="M12.0905 15.8492C7.07629 15.8492 4.21633 12.4116 4.09717 6.69165H6.60883C6.69133 10.89 8.54296 12.6683 10.0096 13.035V6.69165H12.3747V10.3125C13.823 10.1567 15.3445 8.50665 15.8579 6.69165H18.2229C17.8287 8.92832 16.1787 10.5783 15.0054 11.2567C16.1787 11.8067 18.058 13.2458 18.773 15.8492H16.1696C15.6104 14.1075 14.2172 12.76 12.3747 12.5767V15.8492H12.0905Z" fill="white"/>
</g>
<defs>
<clipPath id="clip0_456_9630">
<rect width="22" height="22" fill="white" transform="translate(0.384644)"/>
</clipPath>
</defs>
</svg>
