<svg width="18" height="18" viewBox="0 0 18 18" fill="none" xmlns="http://www.w3.org/2000/svg">
<path fill-rule="evenodd" clip-rule="evenodd" d="M9 1.875C6.1425 1.875 4.125 3.93225 4.125 6.46425C4.125 7.61625 4.599 8.39325 5.19375 9.13425C5.32275 9.2955 5.454 9.45075 5.589 9.6105L5.661 9.6945C5.8185 9.882 5.98125 10.0755 6.1335 10.275C6.4365 10.6733 6.72075 11.121 6.87975 11.6505C6.91869 11.7921 6.90071 11.9433 6.82964 12.0718C6.75858 12.2004 6.64007 12.296 6.49943 12.3383C6.3588 12.3806 6.20719 12.3662 6.07701 12.2983C5.94683 12.2303 5.8484 12.1141 5.80275 11.9745C5.69925 11.6295 5.505 11.307 5.238 10.9567C5.097 10.7746 4.95146 10.5961 4.8015 10.4213L4.7325 10.3387C4.5975 10.1797 4.455 10.0118 4.31625 9.8385C3.6525 9.012 3 7.98825 3 6.4635C3 3.27225 5.56125 0.75 9 0.75C12.4388 0.75 15 3.2715 15 6.46425C15 7.98825 14.3475 9.012 13.6838 9.83925C13.545 10.0118 13.4025 10.1798 13.2675 10.3395L13.1985 10.4213C13.041 10.6073 12.8948 10.782 12.762 10.9567C12.495 11.307 12.3008 11.6302 12.1973 11.9745C12.1543 12.1174 12.0563 12.2374 11.9249 12.3081C11.7934 12.3788 11.6393 12.3943 11.4964 12.3514C11.3535 12.3084 11.2335 12.2104 11.1628 12.079C11.0921 11.9476 11.0765 11.7934 11.1195 11.6505C11.2793 11.121 11.5635 10.6733 11.8673 10.275C12.0188 10.0755 12.1815 9.882 12.3397 9.6945L12.411 9.6105C12.546 9.45075 12.6773 9.2955 12.8063 9.135C13.401 8.3925 13.875 7.61625 13.875 6.46425C13.875 3.93225 11.8575 1.875 9 1.875ZM7.125 16.3125C7.125 16.1633 7.18426 16.0202 7.28975 15.9148C7.39524 15.8093 7.53832 15.75 7.6875 15.75H10.3125C10.4617 15.75 10.6048 15.8093 10.7102 15.9148C10.8157 16.0202 10.875 16.1633 10.875 16.3125C10.875 16.4617 10.8157 16.6048 10.7102 16.7102C10.6048 16.8157 10.4617 16.875 10.3125 16.875H7.6875C7.53832 16.875 7.39524 16.8157 7.28975 16.7102C7.18426 16.6048 7.125 16.4617 7.125 16.3125ZM6.5625 13.5C6.41332 13.5 6.27024 13.5593 6.16475 13.6648C6.05926 13.7702 6 13.9133 6 14.0625C6 14.2117 6.05926 14.3548 6.16475 14.4602C6.27024 14.5657 6.41332 14.625 6.5625 14.625H11.4375C11.5867 14.625 11.7298 14.5657 11.8352 14.4602C11.9407 14.3548 12 14.2117 12 14.0625C12 13.9133 11.9407 13.7702 11.8352 13.6648C11.7298 13.5593 11.5867 13.5 11.4375 13.5H6.5625Z" fill="white"/>
</svg>
