<svg width="18" height="18" viewBox="0 0 18 18" fill="none" xmlns="http://www.w3.org/2000/svg">
<path d="M4.5 6H3C2.17157 6 1.5 6.67157 1.5 7.5V14.25C1.5 15.0784 2.17157 15.75 3 15.75H4.5C5.32843 15.75 6 15.0784 6 14.25V7.5C6 6.67157 5.32843 6 4.5 6Z" stroke="white" stroke-linecap="round" stroke-linejoin="round"/>
<path d="M11.9077 15.75H9.15833C8.56605 15.75 7.98703 15.5747 7.49423 15.2462L6.33398 14.4727C6.12533 14.3336 6 14.0994 6 13.8486V7.69917C6 7.56865 6.03406 7.44039 6.09882 7.32707L9 2.25H9.99653C11.4941 2.25 12.3873 3.91902 11.5566 5.16506L10.5 6.75H14.5788C15.5547 6.75 16.2707 7.66708 16.034 8.6138L14.8181 13.4776C14.4842 14.8131 13.2843 15.75 11.9077 15.75Z" stroke="white" stroke-linecap="round" stroke-linejoin="round"/>
</svg>
