<svg width="19" height="14" viewBox="0 0 19 14" fill="none" xmlns="http://www.w3.org/2000/svg">
<path d="M12.0621 2H2.67081C2.30033 2 2 2.30033 2 2.67081V3.73456C2 3.91247 2.07067 4.08309 2.19647 4.20889L5.82837 7.84079C5.95417 7.96659 6.02484 8.13721 6.02484 8.31512V12.3183C6.02484 12.817 6.54962 13.1413 6.99564 12.9183L8.33726 12.2475C8.56451 12.1339 8.70807 11.9016 8.70807 11.6475V8.31512C8.70807 8.13721 8.77874 7.96659 8.90454 7.84079L12.5364 4.2089C12.6622 4.08309 12.7329 3.91247 12.7329 3.73456V2.67081C12.7329 2.30033 12.4326 2 12.0621 2Z" stroke="#3372BF" stroke-width="1.1" stroke-linecap="round" stroke-linejoin="round"/>
<path d="M17.4497 7.24264L13.7071 3.5C13.3166 3.10948 12.6834 3.10948 12.2929 3.5L8.55025 7.24264C7.92029 7.8726 8.36645 8.94975 9.25736 8.94975L13 8.94975L16.7426 8.94975C17.6335 8.94975 18.0797 7.87261 17.4497 7.24264Z" fill="#3372BF" stroke="white"/>
</svg>
