<svg width="19" height="14" viewBox="0 0 19 14" fill="none" xmlns="http://www.w3.org/2000/svg">
<path d="M12.0621 2H2.67081C2.30033 2 2 2.30033 2 2.67081V3.73456C2 3.91247 2.07067 4.08309 2.19647 4.20889L5.82837 7.84079C5.95417 7.96659 6.02484 8.13721 6.02484 8.31512V12.3183C6.02484 12.817 6.54962 13.1413 6.99564 12.9183L8.33726 12.2475C8.56451 12.1339 8.70807 11.9016 8.70807 11.6475V8.31512C8.70807 8.13721 8.77874 7.96659 8.90454 7.84079L12.5364 4.2089C12.6622 4.08309 12.7329 3.91247 12.7329 3.73456V2.67081C12.7329 2.30033 12.4326 2 12.0621 2Z" stroke="#3372BF" stroke-width="1.1" stroke-linecap="round" stroke-linejoin="round"/>
<path d="M8.55025 6.75736L12.2929 10.5C12.6834 10.8905 13.3166 10.8905 13.7071 10.5L17.4497 6.75736C18.0797 6.1274 17.6335 5.05025 16.7426 5.05025L13 5.05025L9.25736 5.05025C8.36646 5.05025 7.92029 6.12739 8.55025 6.75736Z" fill="#9CA6B4" stroke="white"/>
</svg>
