<svg width="16" height="18" viewBox="0 0 16 18" fill="none" xmlns="http://www.w3.org/2000/svg">
<path d="M4.66667 7.33341H11.3333M4.66667 10.6667H11.3333M4.66667 14.0001H8M4.66667 2.33341C4.66667 3.25389 5.41286 4.00008 6.33333 4.00008H9.66667C10.5871 4.00008 11.3333 3.25389 11.3333 2.33341M4.66667 2.33341C4.66667 1.41294 5.41286 0.666748 6.33333 0.666748H9.66667C10.5871 0.666748 11.3333 1.41294 11.3333 2.33341M4.66667 2.33341H3.83333C1.99238 2.33341 0.5 3.8258 0.5 5.66675V14.0001C0.5 15.841 1.99238 17.3334 3.83333 17.3334H12.1667C14.0076 17.3334 15.5 15.841 15.5 14.0001V5.66675C15.5 3.8258 14.0076 2.33341 12.1667 2.33341H11.3333" stroke="#9CA6B4" stroke-linecap="round"/>
</svg>
