<svg width="16" height="18" viewBox="0 0 16 18" fill="none" xmlns="http://www.w3.org/2000/svg">
<path d="M1.3335 11.1585V5.10217C1.3335 3.49242 2.68549 2.23171 4.25004 2.38255L5.01374 2.45618C5.66572 2.51903 6.28841 2.16504 6.58127 1.56504C7.16589 0.367318 8.83444 0.367318 9.41905 1.56504C9.71192 2.16504 10.3346 2.51903 10.9866 2.45618L11.7503 2.38255C13.3148 2.23171 14.6668 3.49242 14.6668 5.10217V11.1585C14.6668 11.9653 14.3187 12.7308 13.7157 13.2498L9.71574 16.6931C8.72388 17.5469 7.27645 17.5469 6.28458 16.6931L2.28458 13.2498C1.68163 12.7308 1.3335 11.9653 1.3335 11.1585Z" stroke="#3372BF" stroke-linecap="round"/>
<path d="M5.5 9.00016L7.07895 10.6668L10.5 7.3335" stroke="#3372BF" stroke-linecap="round" stroke-linejoin="round"/>
</svg>
