<svg width="16" height="18" viewBox="0 0 16 18" fill="none" xmlns="http://www.w3.org/2000/svg">
<circle cx="8.00015" cy="10.8517" r="0.925928" fill="#3372BF" stroke="#3372BF"/>
<path d="M4.66699 6.49984V3.46651C4.66699 1.92011 5.9206 0.666504 7.46699 0.666504H8.53366C10.0801 0.666504 11.3337 1.92011 11.3337 3.4665V3.58317" stroke="#3372BF" stroke-linecap="round"/>
<path d="M8 11.7776V13.6294" stroke="#3372BF" stroke-linecap="round"/>
<path d="M1.3335 8.77174C1.3335 7.75553 2.09555 6.90086 3.10511 6.78482L7.77178 6.24842C7.92354 6.23098 8.07679 6.23098 8.22854 6.24842L12.8952 6.78482C13.9048 6.90086 14.6668 7.75553 14.6668 8.77174V14.4992C14.6668 15.4726 13.9659 16.3047 13.0066 16.4701L8.33998 17.2747C8.11509 17.3135 7.88523 17.3135 7.66035 17.2747L2.99368 16.4701C2.03438 16.3047 1.3335 15.4726 1.3335 14.4992V8.77174Z" stroke="#3372BF"/>
</svg>
