<svg width="16" height="18" viewBox="0 0 16 18" fill="none" xmlns="http://www.w3.org/2000/svg">
<circle cx="7.9999" cy="10.8517" r="0.925928" fill="white" stroke="white"/>
<path d="M4.6665 6.49984V3.46651C4.6665 1.92011 5.92011 0.666504 7.4665 0.666504H8.53317C10.0796 0.666504 11.3332 1.92011 11.3332 3.4665V3.58317" stroke="white" stroke-linecap="round"/>
<path d="M8 11.7776V13.6294" stroke="white" stroke-linecap="round"/>
<path d="M1.33325 9.48505C1.33325 8.06236 2.40013 6.86582 3.81352 6.70336L7.68018 6.25892C7.89264 6.2345 8.1072 6.2345 8.31965 6.25892L12.1863 6.70336C13.5997 6.86582 14.6666 8.06236 14.6666 9.48505V13.8253C14.6666 15.1882 13.6853 16.3531 12.3423 16.5846L8.47566 17.2513C8.16082 17.3056 7.83902 17.3056 7.52418 17.2513L3.65751 16.5846C2.31449 16.3531 1.33325 15.1882 1.33325 13.8253V9.48505Z" stroke="white"/>
</svg>
