<svg width="17" height="18" viewBox="0 0 17 18" fill="none" xmlns="http://www.w3.org/2000/svg">
<path d="M5.16667 7.33341H11.8333M5.16667 10.6667H11.8333M5.16667 14.0001H8.5M5.16667 2.33341C5.16667 3.25389 5.91286 4.00008 6.83333 4.00008H10.1667C11.0871 4.00008 11.8333 3.25389 11.8333 2.33341M5.16667 2.33341C5.16667 1.41294 5.91286 0.666748 6.83333 0.666748H10.1667C11.0871 0.666748 11.8333 1.41294 11.8333 2.33341M5.16667 2.33341H4.33333C2.49238 2.33341 1 3.8258 1 5.66675V14.0001C1 15.841 2.49238 17.3334 4.33333 17.3334H12.6667C14.5076 17.3334 16 15.841 16 14.0001V5.66675C16 3.8258 14.5076 2.33341 12.6667 2.33341H11.8333" stroke="white" stroke-linecap="round"/>
</svg>
