<svg width="15" height="18" viewBox="0 0 15 18" fill="none" xmlns="http://www.w3.org/2000/svg">
<path d="M1 11.1585V5.10217C1 3.49242 2.352 2.23171 3.91654 2.38255L4.68024 2.45618C5.33223 2.51903 5.95491 2.16504 6.24778 1.56504C6.83239 0.367318 8.50094 0.367318 9.08556 1.56504C9.37842 2.16504 10.0011 2.51903 10.6531 2.45618L11.4168 2.38255C12.9813 2.23171 14.3333 3.49242 14.3333 5.10217V11.1585C14.3333 11.9653 13.9852 12.7308 13.3822 13.2498L9.38225 16.6931C8.39038 17.5469 6.94295 17.5469 5.95108 16.6931L1.95109 13.2498C1.34814 12.7308 1 11.9653 1 11.1585Z" stroke="white" stroke-linecap="round"/>
<path d="M5.16675 9.00016L6.7457 10.6668L10.1667 7.3335" stroke="white" stroke-linecap="round" stroke-linejoin="round"/>
</svg>
