<svg width="20" height="20" viewBox="0 0 20 20" fill="none" xmlns="http://www.w3.org/2000/svg">
<path d="M15.1997 7.4794L14.7028 7.53579L15.1997 7.4794ZM15.5723 10.7628L16.0691 10.7064L15.5723 10.7628ZM4.42777 10.7628L3.93096 10.7064L4.42777 10.7628ZM4.80043 7.4794L5.29724 7.53579L4.80043 7.4794ZM3.70653 12.3935L3.32579 12.0694H3.32579L3.70653 12.3935ZM16.2936 12.3935L15.9128 12.7176V12.7176L16.2936 12.3935ZM11.8917 3.6448H11.3917C11.3917 3.85852 11.5275 4.04861 11.7297 4.11784L11.8917 3.6448ZM8.10842 3.6448L8.27038 4.11784C8.47258 4.04861 8.60842 3.85852 8.60842 3.6448H8.10842ZM12.9682 16.8422C13.0651 16.5836 12.9341 16.2955 12.6755 16.1985C12.4169 16.1016 12.1288 16.2327 12.0318 16.4913L12.9682 16.8422ZM7.96824 16.4913C7.87133 16.2327 7.58315 16.1016 7.32457 16.1985C7.06599 16.2955 6.93493 16.5836 7.03184 16.8422L7.96824 16.4913ZM14.8144 14.5001H5.18572V15.5001H14.8144V14.5001ZM14.7028 7.53579L15.0755 10.8192L16.0691 10.7064L15.6965 7.42302L14.7028 7.53579ZM4.92458 10.8192L5.29724 7.53579L4.30362 7.42302L3.93096 10.7064L4.92458 10.8192ZM4.08727 12.7176C4.55309 12.1704 4.84568 11.5143 4.92458 10.8192L3.93096 10.7064C3.87562 11.194 3.6694 11.6658 3.32579 12.0694L4.08727 12.7176ZM15.0755 10.8192C15.1544 11.5143 15.447 12.1704 15.9128 12.7176L16.6743 12.0694C16.3307 11.6658 16.1245 11.194 16.0691 10.7064L15.0755 10.8192ZM5.18572 14.5001C4.59666 14.5001 4.16809 14.2075 3.96679 13.8528C3.77043 13.5067 3.77468 13.0848 4.08727 12.7176L3.32579 12.0694C2.72419 12.7762 2.70621 13.6575 3.09708 14.3463C3.48301 15.0264 4.25113 15.5001 5.18572 15.5001V14.5001ZM14.8144 15.5001C15.749 15.5001 16.5171 15.0264 16.903 14.3463C17.2939 13.6575 17.2759 12.7762 16.6743 12.0694L15.9128 12.7176C16.2254 13.0848 16.2297 13.5067 16.0333 13.8528C15.832 14.2075 15.4034 14.5001 14.8144 14.5001V15.5001ZM12.3917 3.6448V3.55837H11.3917V3.6448H12.3917ZM15.6965 7.42302C15.4701 5.42869 13.9891 3.83445 12.0536 3.17176L11.7297 4.11784C13.3649 4.6777 14.5273 5.98919 14.7028 7.53579L15.6965 7.42302ZM8.60842 3.6448V3.55837H7.60842V3.6448H8.60842ZM5.29724 7.53579C5.47277 5.98919 6.63523 4.6777 8.27038 4.11784L7.94646 3.17176C6.01095 3.83445 4.52997 5.42869 4.30362 7.42302L5.29724 7.53579ZM10 2.16675C10.7686 2.16675 11.3917 2.7898 11.3917 3.55837H12.3917C12.3917 2.23751 11.3209 1.16675 10 1.16675V2.16675ZM10 1.16675C8.67918 1.16675 7.60842 2.23751 7.60842 3.55837H8.60842C8.60842 2.7898 9.23147 2.16675 10 2.16675V1.16675ZM12.0318 16.4913C11.7439 17.2595 10.9539 17.8334 10 17.8334V18.8334C11.3545 18.8334 12.5284 18.0159 12.9682 16.8422L12.0318 16.4913ZM10 17.8334C9.04615 17.8334 8.25617 17.2595 7.96824 16.4913L7.03184 16.8422C7.47172 18.0159 8.64555 18.8334 10 18.8334V17.8334Z" fill="#102B51"/>
</svg>
