<svg width="20" height="20" viewBox="0 0 20 20" fill="none" xmlns="http://www.w3.org/2000/svg">
<circle cx="10" cy="11.8517" r="0.925928" fill="#102B51" stroke="#102B51"/>
<path d="M6.66675 7.49984V4.46651C6.66675 2.92011 7.92035 1.6665 9.46675 1.6665H10.5334C12.0798 1.6665 13.3334 2.92011 13.3334 4.4665V4.58317" stroke="#102B51" stroke-linecap="round"/>
<path d="M10 12.7776V14.6294" stroke="#102B51" stroke-linecap="round"/>
<path d="M3.33337 10.4851C3.33337 9.06236 4.40025 7.86582 5.81364 7.70336L9.68031 7.25892C9.89276 7.2345 10.1073 7.2345 10.3198 7.25892L14.1864 7.70336C15.5998 7.86582 16.6667 9.06236 16.6667 10.485V14.8253C16.6667 16.1882 15.6855 17.3531 14.3424 17.5846L10.4758 18.2513C10.1609 18.3056 9.83914 18.3056 9.5243 18.2513L5.65763 17.5846C4.31461 17.3531 3.33337 16.1882 3.33337 14.8253V10.4851Z" stroke="#102B51"/>
</svg>
