<svg width="16" height="18" viewBox="0 0 16 18" fill="none" xmlns="http://www.w3.org/2000/svg">
<path d="M14.6666 14.523C14.6666 14.9706 14.413 15.4117 13.9269 15.8096C13.4408 16.2075 12.7363 16.5508 11.8719 16.8107C11.0076 17.0707 10.0085 17.2399 8.95776 17.3042C7.90702 17.3685 6.83503 17.3261 5.83103 17.1804C4.82703 17.0348 3.92005 16.7902 3.18559 16.467C2.45113 16.1438 1.91043 15.7513 1.60849 15.3222C1.30656 14.8931 1.25212 14.4398 1.44971 14" stroke="white" stroke-linecap="round"/>
<path d="M12.911 8.23972L10.5912 13.5222C10.1573 14.5104 9.141 15.1667 7.99984 15.1667C6.85868 15.1667 5.84241 14.5104 5.40845 13.5222L3.08868 8.23971C1.6258 4.90848 4.15964 1.16675 7.99984 1.16675C11.84 1.16675 14.3739 4.90848 12.911 8.23972Z" stroke="white"/>
<circle cx="7.99992" cy="5.66667" r="1.66667" stroke="white"/>
</svg>
