<svg width="8" height="5" viewBox="0 0 8 5" fill="none" xmlns="http://www.w3.org/2000/svg">
<path fill-rule="evenodd" clip-rule="evenodd" d="M7.85089 0.149165C7.65208 -0.0496475 7.32974 -0.0496475 7.13093 0.149165L7.06165 0.218439C7.03796 0.242134 7.01709 0.267584 6.99904 0.294371C6.97225 0.312419 6.9468 0.33329 6.92311 0.356986L6.78456 0.495533C6.76086 0.519229 6.73999 0.544679 6.72194 0.571466C6.69516 0.589513 6.66971 0.610385 6.64601 0.63408L6.50746 0.772628C6.48377 0.796323 6.4629 0.821774 6.44485 0.848561C6.41806 0.866608 6.39261 0.887479 6.36892 0.911175L6.23037 1.04972C6.20667 1.07342 6.1858 1.09887 6.16776 1.12565C6.14097 1.1437 6.11552 1.16457 6.09182 1.18827L5.95328 1.32682C5.92958 1.35051 5.90871 1.37596 5.89066 1.40275C5.86387 1.4208 5.83842 1.44167 5.81473 1.46536L5.67618 1.60391C5.65249 1.62761 5.63161 1.65306 5.61357 1.67984C5.58678 1.69789 5.56133 1.71876 5.53763 1.74246L5.39909 1.88101C5.37539 1.9047 5.35452 1.93015 5.33647 1.95694C5.30969 1.97499 5.28423 1.99586 5.26054 2.01955L5.12199 2.1581C5.0983 2.1818 5.07742 2.20725 5.05938 2.23403C5.03259 2.25208 5.00714 2.27295 4.98344 2.29665L4.8449 2.4352C4.8212 2.45889 4.80033 2.48434 4.78228 2.51113C4.7555 2.52918 4.73005 2.55005 4.70635 2.57374L4.5678 2.71229C4.54411 2.73599 4.52324 2.76144 4.50519 2.78822C4.4784 2.80627 4.45295 2.82714 4.42925 2.85084L4.35998 2.92011C4.34782 2.93227 4.33532 2.94359 4.32253 2.95411C4.30942 2.96489 4.297 2.97619 4.28525 2.98796C4.26996 2.99431 4.25484 3.00147 4.23994 3.00944C4.21053 3.02517 4.17983 3.03782 4.14827 3.04736C4.13199 3.05228 4.11613 3.05795 4.10073 3.06431C4.08403 3.0643 4.06717 3.06511 4.0502 3.06677C4.01683 3.07004 3.98317 3.07004 3.9498 3.06677C3.93283 3.06511 3.91597 3.0643 3.89927 3.06431C3.88387 3.05795 3.86801 3.05228 3.85173 3.04736C3.82017 3.03782 3.78947 3.02517 3.76006 3.00944C3.74516 3.00147 3.73004 2.99431 3.71475 2.98796C3.703 2.97619 3.69058 2.96489 3.67747 2.95411C3.66468 2.94359 3.65218 2.93227 3.64002 2.92011L3.57075 2.85084C3.54705 2.82714 3.5216 2.80627 3.49481 2.78822C3.47677 2.76144 3.45589 2.73599 3.4322 2.71229L3.29365 2.57374C3.26996 2.55005 3.24451 2.52918 3.21772 2.51113C3.19967 2.48434 3.1788 2.45889 3.1551 2.4352L3.01656 2.29665C2.99286 2.27295 2.96741 2.25208 2.94062 2.23403C2.92258 2.20725 2.9017 2.1818 2.87801 2.1581L2.73946 2.01955C2.71577 1.99586 2.69032 1.97499 2.66353 1.95694C2.64548 1.93015 2.62461 1.9047 2.60091 1.88101L2.46237 1.74246C2.43867 1.71876 2.41322 1.69789 2.38643 1.67984C2.36839 1.65306 2.34751 1.62761 2.32382 1.60391L2.18527 1.46536C2.16158 1.44167 2.13613 1.4208 2.10934 1.40275C2.09129 1.37596 2.07042 1.35051 2.04672 1.32682L1.90818 1.18827C1.88448 1.16457 1.85903 1.1437 1.83224 1.12566C1.8142 1.09887 1.79333 1.07342 1.76963 1.04972L1.63108 0.911175C1.60739 0.887479 1.58194 0.866608 1.55515 0.848561C1.5371 0.821774 1.51623 0.796323 1.49254 0.772628L1.35399 0.63408C1.33029 0.610384 1.30484 0.589513 1.27806 0.571466C1.26001 0.544679 1.23914 0.519228 1.21544 0.495533L1.07689 0.356986C1.0532 0.33329 1.02775 0.312419 1.00096 0.294371C0.982913 0.267584 0.962042 0.242134 0.938346 0.218438L0.869073 0.149165C0.67026 -0.0496478 0.347922 -0.0496478 0.149109 0.149165C-0.0497031 0.347977 -0.0497031 0.670315 0.149109 0.869128L0.218382 0.938401C0.242078 0.962097 0.267529 0.982969 0.294316 1.00102C0.312363 1.0278 0.333235 1.05325 0.35693 1.07695L0.495477 1.2155C0.519173 1.23919 0.544624 1.26006 0.571411 1.27811C0.589458 1.3049 0.61033 1.33035 0.634025 1.35404L0.772572 1.49259C0.796268 1.51629 0.821718 1.53716 0.848505 1.55521C0.866552 1.58199 0.887424 1.60744 0.91112 1.63114L1.04967 1.76969C1.07336 1.79338 1.09881 1.81425 1.1256 1.8323C1.14365 1.85909 1.16452 1.88454 1.18821 1.90823L1.32676 2.04678C1.35046 2.07048 1.37591 2.09135 1.40269 2.10939C1.42074 2.13618 1.44161 2.16163 1.46531 2.18533L1.60386 2.32387C1.62755 2.34757 1.653 2.36844 1.67979 2.38649C1.69784 2.41328 1.71871 2.43873 1.7424 2.46242L1.88095 2.60097C1.90465 2.62467 1.9301 2.64554 1.95688 2.66358C1.97493 2.69037 1.9958 2.71582 2.0195 2.73952L2.15805 2.87806C2.18174 2.90176 2.20719 2.92263 2.23398 2.94068C2.25203 2.96747 2.2729 2.99292 2.29659 3.01661L2.43514 3.15516C2.45884 3.17885 2.48429 3.19973 2.51107 3.21777C2.52912 3.24456 2.54999 3.27001 2.57369 3.29371L2.71224 3.43225C2.73593 3.45595 2.76138 3.47682 2.78817 3.49487C2.80622 3.52165 2.82709 3.54711 2.85078 3.5708L2.92006 3.64007C2.95554 3.67556 2.99245 3.70902 3.03063 3.74043C3.07049 3.77322 3.11384 3.79894 3.15917 3.81773C3.19386 3.85253 3.23421 3.88285 3.27979 3.90723C3.36904 3.95497 3.46196 3.99321 3.55701 4.02195C3.60637 4.03688 3.65624 4.04395 3.70527 4.04388C3.75054 4.06262 3.79929 4.07508 3.85057 4.0801C3.94994 4.08983 4.05006 4.08983 4.14943 4.0801C4.20071 4.07508 4.24947 4.06262 4.29473 4.04388C4.34376 4.04395 4.39363 4.03688 4.44299 4.02195C4.53804 3.99321 4.63096 3.95497 4.72021 3.90723C4.76579 3.88285 4.80614 3.85253 4.84083 3.81773C4.88616 3.79894 4.92951 3.77322 4.96937 3.74043C5.00755 3.70902 5.04446 3.67556 5.07994 3.64007L5.14922 3.5708C5.17291 3.54711 5.19379 3.52165 5.21183 3.49487C5.23862 3.47682 5.26407 3.45595 5.28777 3.43225L5.42631 3.29371C5.45001 3.27001 5.47088 3.24456 5.48893 3.21777C5.51571 3.19973 5.54116 3.17885 5.56486 3.15516L5.70341 3.01661C5.7271 2.99292 5.74797 2.96747 5.76602 2.94068C5.79281 2.92263 5.81826 2.90176 5.84195 2.87806L5.9805 2.73952C6.0042 2.71582 6.02507 2.69037 6.04312 2.66358C6.0699 2.64554 6.09535 2.62467 6.11905 2.60097L6.2576 2.46242C6.28129 2.43873 6.30216 2.41328 6.32021 2.38649C6.347 2.36844 6.37245 2.34757 6.39614 2.32387L6.53469 2.18533C6.55839 2.16163 6.57926 2.13618 6.59731 2.10939C6.62409 2.09135 6.64954 2.07048 6.67324 2.04678L6.81179 1.90823C6.83548 1.88454 6.85635 1.85909 6.8744 1.8323C6.90119 1.81425 6.92664 1.79338 6.95033 1.76969L7.08888 1.63114C7.11258 1.60744 7.13345 1.58199 7.1515 1.55521C7.17828 1.53716 7.20373 1.51629 7.22743 1.49259L7.36598 1.35404C7.38967 1.33035 7.41054 1.3049 7.42859 1.27811C7.45538 1.26006 7.48083 1.23919 7.50452 1.2155L7.64307 1.07695C7.66677 1.05325 7.68764 1.0278 7.70568 1.00102C7.73247 0.982969 7.75792 0.962097 7.78162 0.938402L7.85089 0.869128C8.0497 0.670316 8.0497 0.347977 7.85089 0.149165Z" fill="#9EBCE0"/>
</svg>
