<svg width="16" height="16" viewBox="0 0 16 16" fill="none" xmlns="http://www.w3.org/2000/svg">
<path d="M15.2866 11.1005L14.8602 10.8394L14.8602 10.8394L15.2866 11.1005ZM14.4911 12.3995L14.9175 12.6606L14.9175 12.6606L14.4911 12.3995ZM0.713409 4.89951L0.287002 4.63841L0.287002 4.63841L0.713409 4.89951ZM1.50887 3.60048L1.93527 3.86158L1.93527 3.86158L1.50887 3.60048ZM3.6821 3.05144L3.92115 2.61229L3.92115 2.61229L3.6821 3.05144ZM1.29572 6.94855L1.05667 7.3877L1.05667 7.3877L1.29572 6.94855ZM12.3179 12.9486L12.0788 13.3877L12.0789 13.3877L12.3179 12.9486ZM14.7043 9.05144L14.4652 9.49059L14.4652 9.49059L14.7043 9.05144ZM1.50887 12.3995L1.08246 12.6606L1.08246 12.6606L1.50887 12.3995ZM0.713408 11.1005L1.13981 10.8394L1.13981 10.8394L0.713408 11.1005ZM14.4911 3.60049L14.9175 3.33938L14.9175 3.33938L14.4911 3.60049ZM15.2866 4.89952L14.8602 5.16063L14.8602 5.16063L15.2866 4.89952ZM14.7043 6.94856L14.9433 7.38771L14.9433 7.38771L14.7043 6.94856ZM12.3179 3.05145L12.557 3.4906L12.557 3.4906L12.3179 3.05145ZM1.29572 9.05145L1.53478 9.4906L1.53478 9.4906L1.29572 9.05145ZM3.6821 12.9486L3.44304 12.5094L3.44304 12.5094L3.6821 12.9486ZM12.2333 3.09748L11.9943 2.65833L11.9943 2.65833L12.2333 3.09748ZM3.76667 3.09747L3.52761 3.53662L3.52761 3.53662L3.76667 3.09747ZM12.2333 12.9025L12.4724 12.4634L12.4724 12.4634L12.2333 12.9025ZM3.76667 12.9025L4.00572 13.3417L4.00572 13.3417L3.76667 12.9025ZM7.20454 1H8.79546V0H7.20454V1ZM8.79546 15H7.20454V16H8.79546V15ZM7.20454 15C6.57392 15 6.11363 14.525 6.11363 14H5.11363C5.11363 15.1319 6.07789 16 7.20454 16V15ZM9.88637 14C9.88637 14.525 9.42608 15 8.79546 15V16C9.92211 16 10.8864 15.1319 10.8864 14H9.88637ZM8.79546 1C9.42608 1 9.88637 1.47503 9.88637 2H10.8864C10.8864 0.868118 9.92211 0 8.79546 0V1ZM7.20454 0C6.07789 0 5.11363 0.868119 5.11363 2H6.11363C6.11363 1.47503 6.57392 1 7.20454 1V0ZM14.8602 10.8394L14.0647 12.1384L14.9175 12.6606L15.713 11.3616L14.8602 10.8394ZM1.13982 5.16062L1.93527 3.86158L1.08246 3.33937L0.287002 4.63841L1.13982 5.16062ZM1.93527 3.86158C2.2289 3.38208 2.9046 3.19748 3.44304 3.49059L3.92115 2.61229C2.93775 2.07696 1.66747 2.384 1.08246 3.33937L1.93527 3.86158ZM1.53478 6.5094C1.01193 6.22479 0.857683 5.62136 1.13982 5.16062L0.287002 4.63841C-0.309503 5.61254 0.0576681 6.84389 1.05667 7.3877L1.53478 6.5094ZM14.0647 12.1384C13.7711 12.6179 13.0954 12.8025 12.557 12.5094L12.0789 13.3877C13.0623 13.923 14.3325 13.616 14.9175 12.6606L14.0647 12.1384ZM15.713 11.3616C16.3095 10.3874 15.9423 9.1561 14.9433 8.61229L14.4652 9.49059C14.9881 9.7752 15.1423 10.3786 14.8602 10.8394L15.713 11.3616ZM1.93527 12.1384L1.13981 10.8394L0.287001 11.3616L1.08246 12.6606L1.93527 12.1384ZM14.0647 3.86159L14.8602 5.16063L15.713 4.63842L14.9175 3.33938L14.0647 3.86159ZM14.8602 5.16063C15.1423 5.62137 14.9881 6.2248 14.4652 6.50941L14.9433 7.38771C15.9423 6.8439 16.3095 5.61255 15.713 4.63842L14.8602 5.16063ZM12.557 3.4906C13.0954 3.19749 13.7711 3.38209 14.0647 3.86159L14.9175 3.33938C14.3325 2.38401 13.0623 2.07698 12.0788 2.6123L12.557 3.4906ZM1.13981 10.8394C0.857682 10.3786 1.01193 9.77521 1.53478 9.4906L1.05667 8.6123C0.0576667 9.15611 -0.309504 10.3875 0.287001 11.3616L1.13981 10.8394ZM1.08246 12.6606C1.66747 13.616 2.93775 13.923 3.92115 13.3877L3.44304 12.5094C2.9046 12.8025 2.2289 12.6179 1.93527 12.1384L1.08246 12.6606ZM12.4724 3.53663L12.557 3.4906L12.0788 2.6123L11.9943 2.65833L12.4724 3.53663ZM3.44304 3.49059L3.52761 3.53662L4.00572 2.65832L3.92115 2.61229L3.44304 3.49059ZM12.557 12.5094L12.4724 12.4634L11.9943 13.3417L12.0788 13.3877L12.557 12.5094ZM3.52761 12.4634L3.44304 12.5094L3.92115 13.3877L4.00572 13.3417L3.52761 12.4634ZM1.05667 7.3877C1.54178 7.65177 1.54178 8.34823 1.05667 8.6123L1.53478 9.4906C2.71574 8.84773 2.71574 7.15227 1.53478 6.5094L1.05667 7.3877ZM4.00572 13.3417C4.50518 13.0698 5.11363 13.4313 5.11363 14H6.11363C6.11363 12.6726 4.69343 11.8288 3.52761 12.4634L4.00572 13.3417ZM10.8864 14C10.8864 13.4313 11.4948 13.0698 11.9943 13.3417L12.4724 12.4634C11.3066 11.8287 9.88637 12.6726 9.88637 14H10.8864ZM14.9433 8.61229C14.4582 8.34822 14.4582 7.65178 14.9433 7.38771L14.4652 6.50941C13.2843 7.15227 13.2843 8.84773 14.4652 9.49059L14.9433 8.61229ZM3.52761 3.53662C4.69343 4.17124 6.11363 3.32735 6.11363 2H5.11363C5.11363 2.56867 4.50518 2.93021 4.00572 2.65832L3.52761 3.53662ZM11.9943 2.65833C11.4948 2.93022 10.8864 2.56867 10.8864 2H9.88637C9.88637 3.32736 11.3066 4.17125 12.4724 3.53663L11.9943 2.65833ZM10 8C10 9.10457 9.10458 10 8.00001 10V11C9.65686 11 11 9.65685 11 8H10ZM8.00001 10C6.89544 10 6.00001 9.10457 6.00001 8H5.00001C5.00001 9.65685 6.34315 11 8.00001 11V10ZM6.00001 8C6.00001 6.89543 6.89544 6 8.00001 6V5C6.34315 5 5.00001 6.34315 5.00001 8H6.00001ZM8.00001 6C9.10458 6 10 6.89543 10 8H11C11 6.34315 9.65686 5 8.00001 5V6Z" fill="white"/>
</svg>
