<svg width="16" height="18" viewBox="0 0 16 18" fill="none" xmlns="http://www.w3.org/2000/svg">
<path d="M13.1995 6.4794L12.7027 6.53579L12.7027 6.53579L13.1995 6.4794ZM13.5722 9.7628L14.069 9.70641L14.069 9.70641L13.5722 9.7628ZM2.42765 9.7628L1.93084 9.70641L1.93084 9.70641L2.42765 9.7628ZM2.80031 6.4794L3.29712 6.53579L2.80031 6.4794ZM1.70641 11.3935L1.32567 11.0694L1.32567 11.0694L1.70641 11.3935ZM14.2934 11.3935L13.9127 11.7176L13.9127 11.7176L14.2934 11.3935ZM9.89154 2.6448H9.39154C9.39154 2.85852 9.52738 3.04861 9.72958 3.11784L9.89154 2.6448ZM6.1083 2.6448L6.27026 3.11784C6.47246 3.04861 6.6083 2.85852 6.6083 2.6448H6.1083ZM10.9681 15.8422C11.065 15.5836 10.934 15.2955 10.6754 15.1985C10.4168 15.1016 10.1286 15.2327 10.0317 15.4913L10.9681 15.8422ZM5.96812 15.4913C5.87121 15.2327 5.58303 15.1016 5.32445 15.1985C5.06587 15.2955 4.93481 15.5836 5.03172 15.8422L5.96812 15.4913ZM12.8142 13.5001H3.1856V14.5001H12.8142V13.5001ZM12.7027 6.53579L13.0754 9.81918L14.069 9.70641L13.6963 6.42302L12.7027 6.53579ZM2.92446 9.81918L3.29712 6.53579L2.3035 6.42302L1.93084 9.70641L2.92446 9.81918ZM2.08715 11.7176C2.55296 11.1704 2.84556 10.5143 2.92446 9.81918L1.93084 9.70641C1.8755 10.194 1.66927 10.6658 1.32567 11.0694L2.08715 11.7176ZM13.0754 9.81918C13.1543 10.5143 13.4469 11.1704 13.9127 11.7176L14.6742 11.0694C14.3306 10.6658 14.1243 10.194 14.069 9.70641L13.0754 9.81918ZM3.1856 13.5001C2.59654 13.5001 2.16797 13.2075 1.96667 12.8528C1.7703 12.5067 1.77456 12.0848 2.08715 11.7176L1.32567 11.0694C0.724068 11.7762 0.70609 12.6575 1.09695 13.3463C1.48288 14.0264 2.251 14.5001 3.1856 14.5001V13.5001ZM12.8142 14.5001C13.7488 14.5001 14.517 14.0264 14.9029 13.3463C15.2937 12.6575 15.2758 11.7762 14.6742 11.0694L13.9127 11.7176C14.2253 12.0848 14.2295 12.5067 14.0332 12.8528C13.8319 13.2075 13.4033 13.5001 12.8142 13.5001V14.5001ZM10.3915 2.6448V2.55837H9.39154V2.6448H10.3915ZM13.6963 6.42302C13.47 4.42869 11.989 2.83445 10.0535 2.17176L9.72958 3.11784C11.3647 3.6777 12.5272 4.98919 12.7027 6.53579L13.6963 6.42302ZM6.6083 2.6448V2.55837H5.6083V2.6448H6.6083ZM3.29712 6.53579C3.47265 4.98919 4.63511 3.6777 6.27026 3.11784L5.94633 2.17176C4.01082 2.83445 2.52985 4.42869 2.3035 6.42302L3.29712 6.53579ZM7.99992 1.16675C8.76849 1.16675 9.39154 1.7898 9.39154 2.55837H10.3915C10.3915 1.23751 9.32078 0.166748 7.99992 0.166748V1.16675ZM7.99992 0.166748C6.67906 0.166748 5.6083 1.23751 5.6083 2.55837H6.6083C6.6083 1.7898 7.23135 1.16675 7.99992 1.16675V0.166748ZM10.0317 15.4913C9.74379 16.2595 8.95381 16.8334 7.99992 16.8334V17.8334C9.35441 17.8334 10.5282 17.0159 10.9681 15.8422L10.0317 15.4913ZM7.99992 16.8334C7.04603 16.8334 6.25604 16.2595 5.96812 15.4913L5.03172 15.8422C5.4716 17.0159 6.64543 17.8334 7.99992 17.8334V16.8334Z" fill="white"/>
</svg>
