<svg width="20" height="20" viewBox="0 0 20 20" fill="none" xmlns="http://www.w3.org/2000/svg">
<path d="M16.6667 15.523C16.6667 15.9706 16.4131 16.4117 15.927 16.8096C15.4409 17.2075 14.7364 17.5508 13.8721 17.8107C13.0077 18.0707 12.0086 18.2399 10.9579 18.3042C9.90714 18.3685 8.83515 18.3261 7.83115 18.1804C6.82715 18.0348 5.92017 17.7902 5.18571 17.467C4.45125 17.1438 3.91055 16.7513 3.60861 16.3222C3.30668 15.8931 3.25224 15.4398 3.44983 15" stroke="#102B51" stroke-linecap="round"/>
<path d="M5.08893 9.23971C3.62604 5.90848 6.15988 2.16675 10.0001 2.16675C13.8403 2.16675 16.3741 5.90848 14.9112 9.23972L12.5915 14.5222C12.1575 15.5104 11.1412 16.1667 10.0001 16.1667C8.85892 16.1667 7.84265 15.5104 7.4087 14.5222L5.08893 9.23971Z" stroke="#102B51"/>
<circle cx="10" cy="6.66667" r="1.66667" stroke="#102B51"/>
</svg>
