<svg width="20" height="20" viewBox="0 0 20 20" fill="none" xmlns="http://www.w3.org/2000/svg">
<path d="M4.51483 7.45455C5.47598 5.38695 7.57125 3.95455 10 3.95455C12.8296 3.95455 15.2062 5.89893 15.8644 8.52512C15.9285 8.7808 16.1877 8.93613 16.4434 8.87204C16.6991 8.80796 16.8544 8.54874 16.7903 8.29306C16.0282 5.25234 13.2777 3 10 3C7.42118 3 5.16891 4.39438 3.95455 6.46919V5.38636C3.95455 5.12277 3.74086 4.90909 3.47727 4.90909C3.21368 4.90909 3 5.12277 3 5.38636V7.77273C3 8.12418 3.28491 8.40909 3.63636 8.40909H6.02273C6.28632 8.40909 6.5 8.19541 6.5 7.93182C6.5 7.66823 6.28632 7.45455 6.02273 7.45455H4.51483Z" fill="white"/>
<path d="M4.13563 11.4749C4.07155 11.2192 3.81233 11.0639 3.55664 11.128C3.30096 11.192 3.14564 11.4513 3.20972 11.7069C3.97184 14.7477 6.7223 17 10 17C12.5788 17 14.8311 15.6056 16.0455 13.5308V14.6136C16.0455 14.8772 16.2591 15.0909 16.5227 15.0909C16.7863 15.0909 17 14.8772 17 14.6136V12.2273C17 11.8758 16.7151 11.5909 16.3636 11.5909H13.9773C13.7137 11.5909 13.5 11.8046 13.5 12.0682C13.5 12.3318 13.7137 12.5455 13.9773 12.5455H15.4852C14.524 14.613 12.4288 16.0455 10 16.0455C7.17046 16.0455 4.79385 14.1011 4.13563 11.4749Z" fill="white"/>
</svg>
